<?xml version="1.0" encoding="UTF-8"?>
<svg xmlns="http://www.w3.org/2000/svg" version="1.1" viewBox="0 0 1365.9826769 522.8168629">
  <!-- Generator: Adobe Illustrator 29.1.0, SVG Export Plug-In . SVG Version: 2.1.0 Build 142)  -->
  <defs>
    <style>
      .st0 {
        fill: #404040;
      }

      .st1 {
        fill: #2b2b2b;
      }

      .st2, .st3, .st4 {
        fill: none;
        stroke: #3d3d3d;
        stroke-miterlimit: 10;
      }

      .st5 {
        fill: #151515;
      }

      .st6 {
        fill: #eaeaea;
      }

      .st7 {
        fill: gray;
      }

      .st8 {
        fill: #aaa;
      }

      .st9 {
        fill: #d4d4d4;
      }

      .st10 {
        isolation: isolate;
      }

      .st11 {
        fill: #fff;
      }

      .st12 {
        mix-blend-mode: color-dodge;
      }

      .st13 {
        fill: #959595;
      }

      .st14 {
        opacity: .6;
      }

      .st15 {
        opacity: .5;
      }

      .st16 {
        opacity: .3;
      }

      .st17 {
        fill: #bfbfbf;
      }

      .st18 {
        fill: #6a6a6a;
      }

      .st3 {
        stroke-width: .5181792px;
      }

      .st4 {
        stroke-width: .8302355px;
      }

      .st19 {
        fill: #555;
      }
    </style>
  </defs>
  <g class="st10">
    <g id="Layer_1">
      <g>
        <rect class="st4" x="498.5081105" y="76.507795" width="368.9837731" height="368.9837731" transform="translate(384.6006238 -406.508853) rotate(44.9999924)"/>
        <rect class="st3" x="567.852118" y="145.8518026" width="230.295758" height="230.295758" transform="translate(384.6006238 -406.508853) rotate(44.9999924)"/>
        <g class="st14">
          <g class="st15">
            <g class="st12">
              <path d="M682.999939,44.900547c.0056152-.0055618.0941772.0719414.2645874.231308.1685791.1612625.4207764.4024773.7554321.7225304.6621094.6475525,1.6503296,1.6140709,2.9551392,2.8902016,2.5953369,2.5668564,6.4498291,6.3791847,11.4871216,11.3612976,10.0460815,9.9929466,24.8097534,24.6784706,43.6801147,43.4490547,37.7828979,37.6995163,92.0111694,91.8081284,157.7929077,157.444725-60.5348511,60.5726929-136.1570435,136.2421875-216.9352417,217.0708313-80.7781372-80.8286133-156.4003906-156.4981079-216.9352722-217.0707703,65.7817078-65.6366119,120.0099792-119.7452393,157.7928772-157.4447708,18.8704224-18.7705841,33.6340332-33.4561234,43.6801147-43.4490662,5.0372925-4.9821167,8.8917847-8.7944412,11.4870605-11.3613014,1.3048706-1.2761307,2.2930908-2.2426491,2.9552002-2.8901978.3346558-.3200569.586853-.5612717.7554321-.7225342.1704102-.1593666.2589722-.2368698.2645264-.231308.0056152.005558-.0718994.0941315-.2312622.2645264-.1612549.1686134-.4025269.420826-.7225342.7554665-.647583.6621056-1.6140747,1.6503525-2.8901978,2.9551659-2.5668945,2.5952797-6.3792114,6.4498177-11.3613281,11.4870949-9.9929199,10.0460892-24.6784668,24.8097229-43.4490356,43.68013-37.4993286,37.582695-91.3205566,91.523613-156.6085815,156.9567947,60.0682373,60.0303955,135.1075439,135.0224304,215.2630005,215.1274109,80.1555176-80.105011,155.1947632-155.0970764,215.2630005-215.1274719-65.2880249-65.4331665-119.109314-119.3740692-156.6086426-156.956749-18.7705688-18.8704071-33.4561157-33.6340332-43.4490356-43.6801186-4.9821167-5.0372772-8.7944336-8.8918152-11.3613281-11.4870949-1.276123-1.3048096-2.2426147-2.2930565-2.8901978-2.955162-.3200684-.3346443-.5612793-.586853-.7225342-.7554665-.1593628-.1703949-.2368774-.2589684-.2313232-.2645264Z"/>
              <path class="st5" d="M706.008667,67.9092407c.0050659-.0050888.0836182.0633011.2345581.2041779.149353.1426086.3727417.3559494.6692505.6390839.5864258.5731049,1.4619751,1.4287338,2.6185913,2.559082,2.3001709,2.2740784,5.7182617,5.6534729,10.1903687,10.0749741,8.9182129,8.8693314,22.0402222,21.9194565,38.8557739,38.6428528,33.6702881,33.5924454,82.131897,81.9419174,141.2970581,140.970253-59.4726562,59.5123901-135.402832,135.4932556-216.8742676,217.019104-81.4714355-81.5258484-157.4016113-157.5066833-216.8742676-217.019043,59.1651611-59.0283508,107.626709-107.3778381,141.2970581-140.9702911,16.8154907-16.7234039,29.9375-29.7735291,38.8557129-38.642868,4.4721069-4.4215012,7.8902588-7.8008957,10.1903687-10.0749741,1.1566162-1.1303482,2.0321655-1.9859772,2.6185913-2.559082.2965088-.2831421.5198975-.4964752.6692505-.6390839.1509399-.1408768.2294922-.2092667.2345581-.2041855.0050659.0050888-.0632935.0836182-.2041626.2345886-.1426392.1493378-.355957.3727417-.6390991.6692429-.5731201.5864334-1.4287109,1.4619598-2.559082,2.6185913-2.2740479,2.3001251-5.6534424,5.7182236-10.0749512,10.1903687-8.8693237,8.9181976-21.9194946,22.0402145-38.6428833,38.8557434-33.4077148,33.4856186-81.491333,81.6813278-140.1950989,140.5219498,59.0475769,59.0078125,134.434967,134.3444824,215.3240051,215.1791382,80.8890991-80.8346863,156.2764282-156.1713562,215.3239746-215.1791992-58.7037354-58.8406067-106.7873535-107.0363007-140.1951294-140.5219116-16.7233887-16.8155212-29.7734985-29.9375381-38.6428833-38.8557281-4.4214478-4.4721451-7.8008423-7.8902435-10.0749512-10.1903687-1.1303711-1.1566315-1.9859619-2.0321579-2.559082-2.6185913-.2831421-.2965012-.49646-.5199051-.6390991-.6692429-.1408691-.1509705-.2092285-.2294998-.2041626-.234581Z"/>
              <path class="st1" d="M729.017334,90.9179306c.0046387-.0046158.0733032.054863.2052612.1776123.1304321.1243362.3255615.3103485.5846558.5572815.512146.5000763,1.2770386,1.2468796,2.2880249,2.2339859,2.0100708,1.9863892,4.9987793,4.9399033,8.9135742,8.8086319,7.8059692,7.7613907,19.3051758,19.194931,34.0783081,33.8837204,29.5827026,29.5104675,72.2773438,72.1007996,124.7251587,124.4205017-58.4578247,58.4995728-134.6483765,134.7446594-216.8123169,216.9673767-82.1639404-82.2227173-158.3544922-158.4677429-216.8122864-216.9673157,52.4477844-52.3197174,95.1423645-94.9100647,124.7251282-124.4205475,14.7730713-14.6887894,26.2722778-26.1223297,34.0782471-33.8837204,3.9147949-3.8687286,6.9035645-6.8222427,8.9135742-8.8086319,1.0109863-.987114,1.7758789-1.7339096,2.2880859-2.2339859.2590332-.2469406.4541626-.4329529.5846558-.5572815.131897-.122757.2005615-.1822357.2052002-.1776199.0045776.0046158-.0548706.0732956-.1776123.2052078-.1243286.1304398-.3103638.325592-.557312.5846558-.500061.5121765-1.2468872,1.2770462-2.2340088,2.2880478-1.9863281,2.0100555-4.9398804,4.998764-8.8085938,8.9135971-7.7614136,7.8059616-19.1949463,19.3051453-33.883728,34.07827-29.3413086,29.4135895-71.687561,71.86409-123.7073364,124.0120087,58.0732422,58.0313721,133.7625732,133.6662292,215.3859863,215.2308655,81.6234131-81.5646667,157.3127441-157.1995239,215.3859863-215.2309265-52.0198364-52.1479034-94.3660278-94.5983887-123.7073975-124.0119629-14.6887817-14.7731247-26.1223145-26.2723083-33.883728-34.07827-3.8687134-3.9148331-6.8222046-6.9035416-8.8085938-8.9135971-.9871216-1.010994-1.7339478-1.7758636-2.2340088-2.2880402-.2469482-.2590714-.4329224-.4542236-.557251-.5846558-.1228027-.1319199-.182251-.200592-.1776733-.2052078Z"/>
              <path class="st0" d="M752.026062,113.9266205s.2362061.203186.6785278.6291504c.4395752.4287415,1.0962524,1.0691528,1.9646606,1.9160614,1.7260132,1.7047501,4.2937622,4.2407761,7.6605835,7.5660629,6.7123413,6.6720963,16.611084,16.5114365,29.3566284,29.1805801,25.5249023,25.458374,62.4523315,62.2895813,108.0627441,107.781189-57.4990845,57.5432129-133.8935547,133.9963989-216.7492065,216.9156494-82.8555908-82.91922-159.2501221-159.372406-216.749176-216.9155884,45.6103821-45.4916229,82.5378113-82.3228455,108.0626526-107.7812195,12.7456055-12.6691437,22.6442871-22.5084839,29.3566284-29.1805878,3.3668823-3.3252945,5.9345703-5.8613129,7.6606445-7.5660706.8683472-.8469086,1.5250244-1.4873199,1.9645996-1.9160538.4423218-.4259644.6785278-.629158.6785278-.629158,0,0-.203186.2362289-.6291504.6785202-.4287109.4396133-1.0691528,1.0962677-1.9160156,1.964653-1.7047729,1.7260513-4.2407837,4.2937622-7.5661011,7.6605911-6.6721191,6.7123642-16.5114136,16.6110611-29.180603,29.3566666-25.3048096,25.3713074-61.9138794,62.0765991-107.1311035,107.4126587,57.1541748,57.1099854,133.0904541,132.9876099,215.4490967,215.2825928,82.3586426-82.2950134,158.2949219-158.1726379,215.4490967-215.2826538-45.2172241-45.3360443-81.826355-82.0413208-107.1311646-107.4126282-12.6691284-12.7455902-22.5084839-22.6443024-29.180603-29.3566513-3.3252563-3.3668365-5.8613281-5.9345474-7.56604-7.6605911-.8469238-.8683853-1.4873657-1.5250397-1.9160767-1.964653-.4259644-.4422913-.6291504-.6785202-.6291504-.6785202Z"/>
              <path class="st19" d="M775.034729,136.935318s.1989136.1695862.5703735.5265503c.3690796.359436.9204712.8964081,1.6498413,1.6067505,1.4493408,1.4304199,3.6061401,3.5590363,6.4361572,6.3521118,5.6411743,5.6052399,13.9663086,13.8773041,24.7022705,24.5448151,21.5028076,21.442215,52.6627197,52.5143127,91.2913818,91.0341187-56.6077881,56.654541-133.1383667,133.2484741-216.6847534,216.8639221-83.5463257-83.6154175-160.0769653-160.2093201-216.6847534-216.8638611,38.6286621-38.5198212,69.7885742-69.5919342,91.2913818-91.0341339,10.7359009-10.6675262,19.0610352-18.9395905,24.7022095-24.5448303,2.8300171-2.7930756,4.9868164-4.9217072,6.4361572-6.3521118.7294312-.7103577,1.2808228-1.2473297,1.6499023-1.6067505.37146-.3569794.5703125-.5265656.5703125-.5265656,0,0-.1696167.1988831-.5265503.5703278-.359436.3690796-.8964233.9204712-1.6067505,1.6498871-1.4304199,1.4493256-3.559082,3.6061249-6.3521118,6.4361572-5.6052246,5.6411743-13.8773193,13.9662933-24.5448608,24.7022247-21.3042603,21.3648682-52.1764832,52.3249207-90.4484558,90.7057953,56.3017883,56.2549438,132.4187927,132.3086548,215.5135193,215.3343201,83.0947876-83.0256958,159.211731-159.0794067,215.5135498-215.3343811-38.2720337-38.3808746-69.1442871-69.3408966-90.4485474-90.70578-10.6675415-10.7359161-18.9395752-19.0610352-24.5447998-24.7022095-2.7930908-2.8300323-4.9217529-4.9868317-6.3521118-6.4361572-.7103882-.7294159-1.2473145-1.2808075-1.6067505-1.6498718-.3569946-.37146-.5266113-.5703278-.5266113-.5703278Z"/>
              <path class="st18" d="M798.043457,159.9440002s.1629028.1373596.4660034.4278107c.3009644.2926025.7506714.7297058,1.3455811,1.3079529,1.1814575,1.1649323,2.9396362,2.8984528,5.246521,5.1729889,4.59729,4.5656738,11.3815308,11.3032532,20.1295776,19.9910736,17.5244141,17.4698181,42.9165649,42.7828522,74.3876343,74.155838-55.7984009,55.8482361-132.3826904,132.5009155-216.6187744,216.8121948-84.2360229-84.3112488-160.8203735-160.9639282-216.6187744-216.8121338,31.4710388-31.3730011,56.8631592-56.6860352,74.3875732-74.1558685,8.7480469-8.6878204,15.5323486-15.4253998,20.1296387-19.9910736,2.3068237-2.2745361,4.0650024-4.0080566,5.246521-5.1729889.5948486-.5782471,1.0445557-1.0153503,1.3455811-1.3079529.3031006-.290451.4659424-.4278107.4659424-.4278107,0,0-.1373291.1628876-.4277954.4659729-.2926025.3010254-.7296753.7507172-1.3079224,1.3455963-1.164917,1.181488-2.8984375,2.9396515-5.1729736,5.246521-4.5656738,4.5973053-11.3032837,11.3815765-19.9910889,20.1296082-17.3474121,17.4020081-42.4830933,42.6167908-73.6362305,73.8679962,55.5307007,55.4808655,131.7476196,131.629364,215.5795288,215.3860474,83.8319702-83.7567139,160.0488281-159.9052124,215.5795288-215.3861084-31.1531372-31.2511902-56.2888184-56.4659576-73.6362305-73.867981-8.6878662-8.7480164-15.425415-15.5322876-19.9910889-20.1295929-2.2745361-2.3068695-4.0080566-4.065033-5.1729736-5.246521-.5782471-.5948792-1.0153809-1.0445709-1.3079834-1.3455963-.2904663-.3030853-.4277954-.4659729-.4277954-.4659729Z"/>
              <path class="st7" d="M821.052124,182.9526978s.123291.101944.3516846.319809c.2266846.2196655.5656128.5480804,1.0147705.9832611.8912964.8774567,2.2198486,2.1854095,3.9691772,3.907547,3.4848022,3.4582367,8.645874,8.5799255,15.3509521,15.2338715,13.4341431,13.3872375,33.055542,32.9400482,57.8043823,57.602478-52.0183716,52.0705872-129.9165649,130.0470276-216.5430908,216.7604675-86.6264648-86.7134094-164.5247192-164.6898499-216.5431213-216.7604065,24.7488708-24.6624451,44.3702393-44.2152557,57.8044128-57.6025085,6.7050781-6.6539459,11.8661499-11.7756195,15.3509521-15.2338562,1.7493286-1.7221527,3.0778809-3.0300903,3.9691772-3.907547.4490967-.4351807.7880249-.7636108,1.0147095-.9832611.2284546-.217865.3516846-.3198242.3516846-.3198242,0,0-.1019287.1232452-.3198242.3516693-.2196655.2266998-.5480957.5656281-.9832764,1.01474-.8774414.8912964-2.1853638,2.2198639-3.9075317,3.9691772-3.4581909,3.4848175-8.579895,8.6458588-15.2338257,15.3509521-13.2840881,13.3309937-32.6861877,32.801651-57.1585388,57.3604584,51.8050842,51.7528381,129.3839417,129.253479,215.6551819,215.4377747,86.2713013-86.1843262,163.8500977-163.684967,215.6551514-215.4378357-24.4723511-24.5587921-43.8744507-44.0294495-57.1585083-57.3604279-6.6539307-6.7050934-11.7756348-11.8661499-15.2338867-15.3509674-1.7221069-1.7492981-3.0300903-3.0778809-3.9075317-3.9691772-.4351807-.4490967-.7636108-.7880402-.9832764-1.0147247-.2178345-.2284241-.3198242-.3516693-.3198242-.3516693Z"/>
              <path class="st13" d="M844.0608521,205.96138s.3126831.2795868.9095459.8601379c.5941162.5833588,1.4834595,1.4565582,2.6644287,2.6161346,2.3510132,2.3302765,5.8632202,5.8114777,10.5081177,10.4153442,9.3076172,9.2702942,23.1547241,23.0617676,41.3125,41.1466675-45.3931885,45.4462891-125.7289429,125.8760986-216.4554443,216.7087402-90.7264404-90.8326111-171.0622559-171.2624207-216.4554443-216.7086792,18.1577759-18.0848999,32.0048523-31.8763885,41.3125-41.1466827,4.6448975-4.6038818,8.1571045-8.0850677,10.5081177-10.4153442,1.1809692-1.1595764,2.0703125-2.0327759,2.6644287-2.6161346.5968628-.5805664.9095459-.8601379.9095459-.8601379,0,0-.2796021.3126831-.8601685.9095306-.583313.5941162-1.456543,1.4834595-2.6161499,2.664444-2.3302612,2.3510132-5.8114624,5.8632202-10.4153137,10.5081024-9.190033,9.2273865-22.8620605,22.9550323-40.7903442,40.9562225,45.2437439,45.1905823,125.315094,125.1679077,215.7428284,215.489502,90.4277954-90.3216248,170.4990845-170.2989502,215.7427979-215.489563-17.9282837-18.0011902-31.6002808-31.7288208-40.7903442-40.9562073-4.6038818-4.6448822-8.085083-8.157074-10.4153442-10.5081024-1.1595459-1.1809845-2.0327759-2.0703125-2.6161499-2.664444-.5805054-.5968475-.8601074-.9095306-.8601074-.9095306Z"/>
              <path class="st8" d="M867.069519,228.9700775s.1774902.1537781.5150757.4796448c.3356323.3278961.8392334.8198853,1.5112915,1.4764404,1.3361816,1.3211823,3.3422241,3.3046722,6.0216675,5.95401,5.3718262,5.3441162,13.4439087,13.3744507,24.244751,24.1194916-39.1282959,39.1816101-121.5415649,121.7071533-216.3623047,216.6570129-94.8206787-94.9498291-177.2339783-177.4753418-216.3623047-216.6569519,10.8008423-10.7450562,18.8728943-18.7753906,24.2447815-24.1195068,2.6794128-2.6493378,4.6854248-4.6328125,6.021637-5.95401.6720276-.6565552,1.1756287-1.1485443,1.511261-1.4764252.3375854-.3258667.5150757-.47966.5150757-.47966,0,0-.1538086.1774902-.4796753.5150757-.3278809.3356171-.8198547.8392181-1.4764404,1.511261-1.321167,1.3361969-3.304657,3.3422089-5.9539795,6.021637-5.2858276,5.3135681-13.2285156,13.2980042-23.8563232,23.9816284,39.0331421,38.9798279,121.2459412,121.0803528,215.835968,215.5412292,94.5900269-94.4608765,176.8027954-176.5614624,215.8359375-215.5412903-10.6277466-10.6836243-18.5704956-18.668045-23.8562622-23.9816132-2.649353-2.6794281-4.6328735-4.6854401-5.9540405-6.021637-.6565552-.6720581-1.1485596-1.1756439-1.4764404-1.5112762-.3258667-.3375702-.4796753-.5150604-.4796753-.5150604Z"/>
              <path class="st17" d="M890.0782471,251.9787598s.1112671.0934906.3845825.3580017c.2714844.2663727.7111206.6976624,1.383606,1.3574524,1.3465576,1.3371887,3.6258545,3.6005859,7.3566284,7.3054504-8.5188599,8.5520935-35.3898926,35.5278625-73.6745605,73.9617615-38.3850098,38.4160156-88.213501,88.2846985-142.5285034,142.6435242-54.3150024-54.3588257-104.1434937-104.2275085-142.5285034-142.6434631-38.2846985-38.4339294-65.1557007-65.409668-73.6745911-73.9617615,3.7308044-3.7048645,6.0100708-5.9682617,7.3566284-7.3054657.6725464-.65979,1.1121521-1.0910645,1.383667-1.3574371.2732849-.2645111.384552-.3580017.384552-.3580017,0,0-.0935059.1112518-.3580017.3845673-.2663879.2714996-.6976624.7111053-1.3574524,1.3836365-1.3181763,1.3275452-3.5493469,3.5745697-7.2014771,7.2527008,8.5401001,8.5068665,35.4779358,35.3399353,73.8578491,73.5705872,38.2796631,38.2487183,87.9714355,87.9002686,142.1373291,142.0223694,54.1659546-54.1221313,103.857666-103.7736816,142.1373901-142.0223999,38.3798828-38.2306519,65.317688-65.0637512,73.8577881-73.5706177-3.6521606-3.6781006-5.8833008-5.9251556-7.2014771-7.2527008-.65979-.6725159-1.0910645-1.1121216-1.3574829-1.3836365-.2644653-.2733154-.3579712-.3845673-.3579712-.3845673Z"/>
              <path class="st9" d="M885.1113281,274.9874573s-.3378906.3690796-1.0202637,1.0667114c-.6849365.6951294-1.7039185,1.7292175-3.0401611,3.0852661-2.6825562,2.7020874-6.638916,6.6871643-11.7340698,11.8193665-10.2103271,10.2444763-24.9849243,25.0683899-43.2418823,43.3863525-36.6160889,36.650177-87.2006836,87.2818298-143.0749512,143.2080688-55.8742065-55.9262085-106.4588623-106.5578918-143.0749512-143.2080383-18.256958-18.3179321-33.0315247-33.1418762-43.2419128-43.386322-5.0951538-5.1322021-9.0514832-9.1173096-11.7340698-11.8193665-1.3362122-1.3560486-2.3551941-2.3901672-3.0401611-3.0852661-.6823425-.6976624-1.0202332-1.0667114-1.0202332-1.0667114,0,0,.3690491.3378601,1.0667114,1.0202332.6950989.684967,1.7292175,1.703949,3.0852661,3.0401611,2.7020569,2.6825867,6.6871643,6.638916,11.8193665,11.7340698,10.2444763,10.2103577,25.0683899,24.9849548,43.386322,43.2419128,36.5338745,36.4997864,87.0049438,86.9237671,142.7536621,142.6205444,55.7487793-55.6968079,106.2197876-106.1207886,142.7536621-142.620575,18.3179321-18.2569885,33.1418457-33.0315552,43.3863525-43.2419128,5.1321411-5.0951843,9.1172485-9.0515137,11.8193359-11.7341003,1.3560791-1.3362122,2.3901367-2.3551941,3.0852661-3.0401306.6976318-.682373,1.0667114-1.0202637,1.0667114-1.0202637Z"/>
              <path class="st6" d="M862.1026611,297.9961548s-.2994385.3270569-.9041138.945282c-.6069946.6159668-1.5099487,1.5323486-2.6940918,2.7340393-2.3771362,2.3944702-5.8831177,5.9258728-10.3981934,10.4738159-9.0480347,9.0782166-22.140625,22.2145691-38.3192139,38.4471741-32.4476318,32.4778442-77.2736206,77.34552-126.7870483,126.9050293-49.5134277-49.5594788-94.3393555-94.4271545-126.7870483-126.9049988-16.1785889-16.232605-29.2711792-29.368927-38.3191528-38.4471436-4.5151367-4.5479431-8.0210876-8.0793762-10.3982849-10.4738464-1.184082-1.2016602-2.0870667-2.118042-2.6940308-2.7340393-.6047058-.6182251-.9041138-.9452515-.9041138-.9452515,0,0,.3270569.299408.945282.9040833.6159668.6069946,1.5323486,1.5099487,2.7340088,2.6940613,2.3944702,2.3771973,5.9259033,5.8831177,10.473877,10.3982544,9.078186,9.0480042,22.2145386,22.1405945,38.4471436,38.3191833,32.3748169,32.344574,77.1000977,77.0281982,126.5023193,126.3843689,49.4022217-49.3562012,94.1275635-94.0397949,126.5023193-126.3844299,16.232605-16.1785583,29.3689575-29.2711792,38.4472046-38.3191833,4.5479126-4.5151062,8.0793457-8.0210571,10.4738159-10.3982544,1.2016602-1.184082,2.118042-2.0870667,2.7340088-2.6940308.6182251-.6047058.9453125-.9041138.9453125-.9041138Z"/>
              <path class="st11" d="M839.0939331,321.0048523s-.2609253.2850342-.7879639.8238525c-.5289917.5368347-1.315979,1.3354797-2.3479614,2.382782-2.0717773,2.086853-5.1273193,5.1646118-9.0623779,9.1282959-7.8856201,7.9119873-19.2963257,19.3607483-33.3964844,33.5080261-28.2791748,28.3055115-67.3464966,67.4092102-110.4991455,110.6019287-43.1525879-43.1927185-82.2199097-82.2963867-110.4991455-110.6019287-14.1001587-14.1472473-25.5108032-25.5960083-33.3964233-33.5079651-3.9351196-3.9636841-6.9906616-7.0414429-9.062439-9.1282959-1.0319824-1.0473022-1.8189697-1.8459778-2.3479614-2.3828125-.5270386-.5388184-.7879639-.823822-.7879639-.823822,0,0,.2850342.2609253.8238525.7879333.5368042.5289917,1.3355103,1.315979,2.3828125,2.3479614,2.086853,2.0718079,5.1646118,5.1273499,9.1282959,9.062439,7.9119263,7.8856201,19.3607178,19.2962646,33.5079956,33.3964233,28.2156982,28.1893921,67.1953125,67.1326599,110.2509766,110.1482239,43.0557251-43.015564,82.0353394-81.9588318,110.2510376-110.1482544,14.1472168-14.1001587,25.5960083-25.5108032,33.5079956-33.3964539,3.9636841-3.9350586,7.0414429-6.9906311,9.1282959-9.0624084,1.0473022-1.0319824,1.8459473-1.8189697,2.3827515-2.3479614.5388184-.5270081.8238525-.7879639.8238525-.7879639Z"/>
            </g>
          </g>
          <g class="st15">
            <g class="st12">
              <path d="M683,477.0988159c-.0055542.0055542-.0941162-.0719299-.2645264-.2313232-.1685791-.1612549-.4207764-.4024658-.7554321-.7225037-.6621094-.6475525-1.6503906-1.6140747-2.9552002-2.8901978-2.5952759-2.566864-6.4497681-6.3792114-11.4870605-11.3612976-10.0460815-9.9929504-24.8097534-24.6784973-43.6801147-43.4490662-37.7828979-37.6995239-92.0111694-91.808136-157.7929382-157.4447021,60.5348816-60.5727234,136.157074-136.242218,216.9352112-217.0708618,80.7781982,80.8286285,156.4004517,156.4980927,216.9353027,217.0708008-65.7816772,65.6365967-120.0099487,119.7452087-157.7928467,157.4447327-18.8704224,18.7705994-33.6340332,33.4561462-43.6801147,43.4490662-5.0372925,4.9821167-8.8918457,8.7944641-11.4871216,11.3613281-1.3048096,1.276123-2.2930298,2.2426453-2.9551392,2.8901978-.3346558.3200378-.586853.5612488-.7554932.7225037-.1703491.1593933-.2589722.2368774-.2645264.2313232s.0719604-.0941162.2313232-.2645264c.1612549-.1686096.4024658-.4208374.7225342-.7554626.647583-.6621094,1.6140747-1.6503601,2.8901978-2.9551697,2.5668945-2.5952759,6.3792114-6.4498291,11.3613281-11.4870911,9.9929199-10.0460815,24.6784668-24.8097229,43.4490356-43.6801453,37.4993286-37.5826721,91.3205566-91.5235901,156.6085815-156.9567566-60.0682373-60.0304108-135.1075439-135.0224457-215.2630615-215.1274376-80.1554565,80.1050148-155.1947021,155.0970573-215.2629395,215.1274986,65.2880249,65.433136,119.109314,119.374054,156.6086426,156.9567261,18.7705688,18.8703918,33.4561157,33.6340332,43.4490356,43.6801147,4.9821167,5.037262,8.7944336,8.8918152,11.3613281,11.4870911,1.276123,1.3048096,2.2426147,2.2930603,2.8901978,2.9551697.3200073.3346252.5612793.586853.7225342.7554626.1593628.1704102.2368164.2589722.2312622.2645264Z"/>
              <path class="st5" d="M659.991333,454.0901184c-.0050659.0050964-.0836182-.0632935-.2345581-.2041626-.149353-.1426086-.3728027-.355957-.6692505-.6390991-.5864258-.5730896-1.4619751-1.4287415-2.6185913-2.559082-2.3001709-2.2740784-5.7182617-5.6534729-10.1903687-10.0749817-8.9182129-8.8693237-22.0402222-21.9194336-38.8557739-38.6428528-33.6703491-33.5924377-82.131897-81.9418945-141.2970581-140.9702148,59.4726562-59.5124054,135.402832-135.4932785,216.8742065-217.0191307,81.4714966,81.5258369,157.4016724,157.5066795,216.8743286,217.0190697-59.1651611,59.0283203-107.626709,107.3778076-141.2970581,140.9702759-16.8154907,16.7233887-29.9375,29.7735291-38.8557129,38.6428528-4.4721069,4.4215088-7.8902588,7.8009033-10.1903687,10.0749817-1.1566162,1.1303406-2.0321655,1.9859619-2.6185913,2.559082-.2965088.2831421-.5198975.49646-.6692505.6390686-.1509399.1408997-.2294922.2092896-.2345581.2041931-.005127-.0050964.0632935-.0836182.2041626-.2345886.1426392-.1493225.355957-.3727417.6390991-.6692505.5731201-.5864258,1.4287109-1.4619446,2.559082-2.6185913,2.2740479-2.3001099,5.6534424-5.7182007,10.0749512-10.1903687,8.8693237-8.9181824,21.9194946-22.0401917,38.6428833-38.8557434,33.4077148-33.4855957,81.491333-81.6813049,140.1950684-140.5219116-59.0475464-59.007843-134.4349365-134.3445129-215.3240356-215.1791687-80.8890381,80.8346786-156.2764282,156.1713715-215.3239441,215.1792297,58.7037659,58.8405762,106.787384,107.0362854,140.1951599,140.5218811,16.7233887,16.8155212,29.7734985,29.9375305,38.6428223,38.8557434,4.4215088,4.4721375,7.8009033,7.8902283,10.0750122,10.1903687,1.1303101,1.1566162,1.9859619,2.032135,2.559082,2.6185913.2831421.2964783.49646.5198975.6390991.66922.1408691.1509705.2092285.2295227.2041626.2345886Z"/>
              <path class="st1" d="M636.982605,431.0814209c-.0045776.0046387-.0732422-.0548401-.2052002-.1776123-.1304321-.1243286-.3255615-.3103333-.5846558-.5572815-.512146-.500061-1.2770386-1.2468567-2.2880249-2.2339783-2.0100708-1.9863892-4.9987793-4.9399109-8.9135742-8.8086243-7.8059692-7.7613831-19.3051758-19.1949463-34.0783081-33.883728-29.5827026-29.5104675-72.2773438-72.1007996-124.7251282-124.4204712,58.4577332-58.4996033,134.6482849-134.7446747,216.8122253-216.9674034,82.1640015,82.2227058,158.3545532,158.4677544,216.8123779,216.9673424-52.4478149,52.3197021-95.142395,94.9100342-124.7251587,124.4205017-14.7731323,14.6888123-26.2722778,26.122345-34.0782471,33.883728-3.914856,3.8687439-6.9035645,6.8222656-8.9135742,8.8086548-1.0110474.9870911-1.7758789,1.7338867-2.2880859,2.2339783-.2590332.2469482-.4542236.4329529-.5846558.5572815-.131897.1227417-.2005615.1822205-.2052002.1776123-.0045776-.0046082.0548706-.0733032.1776123-.2052002.1243286-.1304321.3103638-.325592.557312-.5846558.500061-.5121765,1.2468872-1.2770386,2.2339478-2.2880554,1.9863892-2.0100403,4.9399414-4.9987488,8.8086548-8.9136047,7.7614136-7.8059387,19.1949463-19.3051453,33.883728-34.0782776,29.3413086-29.4135742,71.6875-71.8640747,123.7073364-124.0119629-58.0732422-58.0314026-133.7625732-133.6662445-215.3860474-215.230896-81.6234131,81.5646744-157.3127441,157.1995392-215.3859253,215.230957,52.0198364,52.1478882,94.3660278,94.5983582,123.7073975,124.0119324,14.6887817,14.7731323,26.1223145,26.2723083,33.883728,34.0782776,3.8687134,3.9148254,6.8222046,6.9035339,8.8085938,8.9136047.9871216,1.0109863,1.7339478,1.7758484,2.2340088,2.2880249.2469482.2590637.4329224.4542236.557251.5846558.1228027.1319275.182251.200592.1776123.2052002Z"/>
              <path class="st0" d="M613.973938,408.0727539s-.2362061-.203186-.6785278-.6291504c-.4396362-.4287415-1.0962524-1.0691528-1.9646606-1.9160767-1.7260132-1.7047424-4.2937622-4.2407837-7.6605835-7.5660706-6.7123413-6.6720886-16.611084-16.5114136-29.3566284-29.1805725-25.5249023-25.458374-62.452301-62.2895813-108.0627136-107.7811584,57.499054-57.5432281,133.8935242-133.9964218,216.749115-216.9156723,82.8556519,82.9192276,159.2501831,159.3723984,216.7492676,216.9156113-45.6104126,45.4916077-82.5378418,82.3228149-108.0626831,107.781189-12.7456055,12.6691589-22.6442871,22.5084839-29.3566895,29.180603-3.3668213,3.3252869-5.9345093,5.8612976-7.6605835,7.5660706-.8683472.8468933-1.5250244,1.4873047-1.9645996,1.9160461-.4423218.4259644-.6785278.6291504-.6785278.6291504,0,0,.203186-.2362366.6291504-.6785278.4287109-.4396057,1.0691528-1.0962524,1.9160156-1.9646301,1.7047729-1.7260742,4.2407837-4.2937622,7.5661011-7.660614,6.6720581-6.7123413,16.5114136-16.6110535,29.180542-29.3566589,25.3048706-25.3713074,61.9139404-62.0765991,107.1311646-107.4126282-57.1541748-57.1100159-133.0904541-132.9876251-215.4491577-215.2826233-82.3585815,82.2950134-158.2948608,158.1726532-215.4490356,215.2826843,45.2172241,45.3360291,81.826355,82.0412903,107.1311646,107.4125977,12.6691284,12.7456055,22.5084839,22.6443176,29.180603,29.3566589,3.3252563,3.3668213,5.8613281,5.9345398,7.56604,7.6605835.8469238.8684082,1.4873047,1.5250549,1.9160767,1.9646606.4259644.4422913.6291504.6785278.6291504.6785278Z"/>
              <path class="st19" d="M590.96521,385.0640564s-.1988525-.1695862-.5703125-.5265503c-.3690796-.359436-.9204712-.8964233-1.6498413-1.606781-1.4493408-1.4303894-3.6061401-3.559021-6.4361572-6.3521118-5.6412354-5.6052246-13.9663086-13.8772888-24.7022705-24.5447998-21.5028076-21.4421997-52.6627197-52.5143127-91.2913818-91.0340881,56.6077271-56.6545868,133.1383667-133.2485123,216.6846924-216.863945,83.5463867,83.6154175,160.0770264,160.2093277,216.6848145,216.863884-38.6286621,38.5197754-69.7885742,69.5918884-91.2913818,91.0341187-10.7359009,10.667511-19.0610352,18.9395752-24.7022095,24.5448303-2.8300171,2.7930603-4.9868164,4.9216919-6.4361572,6.3521118-.7294312.7103271-1.2808228,1.2473145-1.6499023,1.6067505-.37146.3569641-.5703125.5265503-.5703125.5265503,0,0,.1696167-.1988831.5265503-.5703125.359436-.3690796.8964233-.9204712,1.6067505-1.6499023,1.4304199-1.4493103,3.559021-3.6061096,6.3521118-6.4361572,5.6052246-5.6411743,13.8773193-13.9662781,24.5447998-24.7022095,21.3043213-21.3648682,52.1765137-52.3249207,90.4485474-90.70578-56.3018188-56.2549744-132.4188232-132.30867-215.5136108-215.3343544-83.0947266,83.0256996-159.2116699,159.0794106-215.5134583,215.3344154,38.2720032,38.3808289,69.1442566,69.3408813,90.4485168,90.7057495,10.6674805,10.7359314,18.9395752,19.0610352,24.5447998,24.7022095,2.7930908,2.8300476,4.9216919,4.9868164,6.3521118,6.4361572.7103882.7294312,1.2473145,1.2807922,1.6067505,1.6498718.3569946.37146.5265503.570343.5265503.570343Z"/>
              <path class="st18" d="M567.956543,362.0553589s-.1629028-.1373596-.4660034-.4277954c-.3010254-.2926025-.7506714-.7297363-1.3455811-1.3079529-1.1814575-1.1649475-2.9396362-2.898468-5.246521-5.1730042-4.59729-4.5656738-11.3815918-11.3032532-20.1295776-19.9910583-17.5244751-17.4698486-42.9165955-42.7828674-74.3876343-74.1558228,55.7984009-55.8482513,132.3826904-132.5009308,216.6187134-216.8122177,84.236084,84.3112564,160.8203735,160.9639206,216.6188354,216.8121567-31.4710693,31.3729553-56.8631592,56.6860046-74.3876343,74.1558533-8.7479858,8.6878052-15.5322876,15.4253845-20.1295776,19.9910583-2.3068848,2.2745361-4.0650024,4.0080566-5.246521,5.1730042-.5948486.5782166-1.0445557,1.0153503-1.3455811,1.3079529-.3031006.2904358-.4660034.4277954-.4660034.4277954,0,0,.1373901-.1628723.4278564-.4659729.2926025-.3010254.7296753-.7507019,1.3079224-1.3456116,1.164917-1.181488,2.8984375-2.9396362,5.1729736-5.2464905,4.5656738-4.5973206,11.3032837-11.3815918,19.9910889-20.1296082,17.3474121-17.4020386,42.4830933-42.6167908,73.6362305-73.867981-55.5307617-55.480896-131.7476196-131.6293793-215.5795898-215.3860817-83.8319092,83.7567177-160.0487671,159.9052315-215.5794678,215.3861427,31.1531677,31.2511597,56.2888184,56.4659424,73.6362305,73.8679504,8.6878052,8.7480164,15.425415,15.5322876,19.9910889,20.1296082,2.2745361,2.3068542,4.0080566,4.0650024,5.1729736,5.246521.5782471.5948792,1.0153809,1.0445557,1.3079834,1.3455811.2904053.3031006.4277954.4659729.4277954.4659729Z"/>
              <path class="st7" d="M544.9478149,339.0466614s-.12323-.1019287-.3516235-.3197937c-.2267456-.2196655-.5656738-.5480957-1.0147705-.9832764-.8912964-.8774414-2.2198486-2.1853943-3.9691772-3.9075317-3.4848022-3.458252-8.645874-8.5799255-15.3509521-15.2338867-13.4341736-13.3872375-33.0555115-32.940033-57.8044128-57.6024475,52.0184021-52.0706177,129.9165955-130.0470428,216.5430603-216.7604866,86.6265259,86.7134132,164.5247803,164.6898384,216.5431519,216.7604256-24.7488403,24.6624146-44.3701782,44.2152405-57.8043823,57.602478-6.7050781,6.6539612-11.8661499,11.7756348-15.3509521,15.2338562-1.7493286,1.7221375-3.0778809,3.0300903-3.9691772,3.9075623-.4490967.4351807-.7880249.7635803-1.0147095.9832458-.2284546.217865-.3516846.3198242-.3516846.3198242,0,0,.1019287-.1232605.3198242-.3516541.2196655-.2267151.5480347-.5656433.9832153-1.01474.8775024-.8912964,2.1854248-2.2198792,3.9075928-3.9691772,3.4581909-3.4848328,8.579895-8.645874,15.2338257-15.3509827,13.2840576-13.3309937,32.6861572-32.8016357,57.1585083-57.3604126-51.8050537-51.7528687-129.3839111-129.2534943-215.6552124-215.4378128-86.2712402,86.1843338-163.8500366,163.6849899-215.6551208,215.4378738,24.4723511,24.5587769,43.8744507,44.0294189,57.1585388,57.3604126,6.6539307,6.7050781,11.7756348,11.8661499,15.2338867,15.3509521,1.7221069,1.7492981,3.0300903,3.0778809,3.9075317,3.9691772.4351807.4490967.7636108.7880249.9832764,1.01474.2178345.2284241.3197632.3516541.3197632.3516541Z"/>
              <path class="st13" d="M521.9391479,316.0379639s-.3126831-.2795715-.9095459-.8601074c-.5941162-.583374-1.4834595-1.4565735-2.6644287-2.6161499-2.3510132-2.3302612-5.8632202-5.8114624-10.5081177-10.4153442-9.3076477-9.2702942-23.1547241-23.0617676-41.3125-41.146637,45.393158-45.4463043,125.7289429-125.8761139,216.4553833-216.7087593,90.7265015,90.8326149,171.0623169,171.2624092,216.4555054,216.7086983-18.1577759,18.0848694-32.0048218,31.8763428-41.3125,41.146637-4.6448975,4.6038818-8.1571045,8.085083-10.5081177,10.4153748-1.1809692,1.1595764-2.0703125,2.0327759-2.6644287,2.6161194-.5968628.5805664-.9095459.8601379-.9095459.8601379,0,0,.2796021-.3126831.8601685-.9095154.583313-.5941467,1.456543-1.4834595,2.6160889-2.6644592,2.3303223-2.3510132,5.8115234-5.8632202,10.4153442-10.5080872,9.1900635-9.2273865,22.8620605-22.9550476,40.7903442-40.9562073-45.2437134-45.1906128-125.3150635-125.1679382-215.7428589-215.4895401-90.4277344,90.3216324-170.4990234,170.2989731-215.7427673,215.4896011,17.9282837,18.0011597,31.6003418,31.7287903,40.7903442,40.9561768,4.6039124,4.6448975,8.0851135,8.157074,10.4153748,10.5081177,1.1595459,1.1809692,2.0327759,2.0703125,2.6160889,2.6644287.5805664.5968628.8601685.9095154.8601685.9095154Z"/>
              <path class="st8" d="M498.9304504,293.0292969s-.1774902-.1538086-.5150757-.4796753c-.3356323-.3278809-.8392029-.8198547-1.511261-1.4764099-1.3362122-1.3211975-3.3422241-3.3046875-6.021637-5.95401-5.3718872-5.3441162-13.4439392-13.3744507-24.2447815-24.1194763,39.1282959-39.1816406,121.5415649-121.7071686,216.3622437-216.6570282,94.8207397,94.9498291,177.2340698,177.4753418,216.3623657,216.6569672-10.8008423,10.7450256-18.8729248,18.7753601-24.244751,24.1194763-2.6794434,2.649353-4.6854858,4.6328125-6.0216675,5.95401-.6720581.6565552-1.1756592,1.1485596-1.5112915,1.4764404-.3375244.3258667-.5150146.4796448-.5150146.4796448,0,0,.1537476-.1774902.4796143-.5150757.3278809-.3356018.8198853-.8392029,1.4764404-1.511261,1.321167-1.3361816,3.3046875-3.3421936,5.9540405-6.021637,5.2857666-5.3135681,13.2285156-13.2980042,23.8562622-23.9815979-39.0331421-38.9798584-121.2459106-121.0803986-215.8359985-215.5412674-94.5899658,94.4608994-176.8027649,176.5614548-215.835907,215.5413284,10.6278076,10.6835938,18.5705261,18.6680298,23.8563232,23.9815979,2.6493225,2.6794128,4.6328125,4.6854248,5.95401,6.021637.6565552.6720276,1.1485596,1.1756287,1.4764404,1.511261.3258667.3375854.4796448.5150757.4796448.5150757Z"/>
              <path class="st17" d="M475.9217529,270.0205994s-.1112671-.0934753-.384552-.3580017c-.2715149-.2663574-.7111206-.6976624-1.383667-1.3574524-1.3465576-1.3371887-3.625824-3.6005859-7.3566284-7.3054199,8.5188904-8.552124,35.3898926-35.5278778,73.67453-73.961792,38.3850708-38.4160004,88.213562-88.2846909,142.5285034-142.6435089,54.3150635,54.3588028,104.1435547,104.227478,142.5285645,142.6434631,38.284668,38.4338989,65.1557007,65.4096527,73.6745605,73.9617767-3.7307739,3.704834-6.0100708,5.9682312-7.3566284,7.3054199-.6724854.65979-1.1121216,1.091095-1.383606,1.3574524-.2733154.2645264-.3845825.3580017-.3845825.3580017,0,0,.0935059-.1112366.3580322-.384552.2663574-.2715149.6976318-.7111206,1.3574219-1.3836365,1.3181763-1.3275452,3.5493164-3.574585,7.2014771-7.2526855-8.5401001-8.506897-35.4779663-35.3399811-73.8578491-73.5706177-38.2796631-38.2487183-87.9714355-87.9002533-142.1373901-142.0223808-54.1658936,54.1221352-103.857666,103.7736931-142.1373291,142.0224266-38.3798523,38.2306366-65.317688,65.063736-73.8577881,73.5706329,3.6521301,3.6781006,5.8833008,5.9251404,7.2014771,7.252655.65979.6725464,1.091095,1.1121521,1.3574524,1.383667.2644958.2732849.3580017.384552.3580017.384552Z"/>
              <path class="st9" d="M480.8886719,247.0119019s.3378601-.3690643,1.0202332-1.0667114c.684967-.6951141,1.703949-1.7292175,3.0401611-3.0852661,2.6825867-2.7020721,6.638916-6.6871796,11.7340698-11.8193665,10.2103577-10.2444763,24.9849548-25.0684052,43.2419128-43.3863525,36.6160889-36.6501617,87.2006836-87.2818375,143.0748901-143.2080536,55.8742676,55.9262009,106.4589233,106.5578613,143.0750122,143.2080078,18.256958,18.3179626,33.0315552,33.1418762,43.2418823,43.3863525,5.0951538,5.1321869,9.0515137,9.1172943,11.7340698,11.8193665,1.3362427,1.3560486,2.3552246,2.390152,3.0401611,3.0852661.682373.6976471,1.0202637,1.0666962,1.0202637,1.0666962,0,0-.3690796-.3378754-1.0667114-1.0202484-.6951294-.6849365-1.729187-1.7039185-3.0852661-3.0401459-2.7020874-2.6825714-6.6871948-6.638916-11.819397-11.7340698-10.2444458-10.2103577-25.0683594-24.9849396-43.3863525-43.2419128-36.5338135-36.4997864-87.0048828-86.9237518-142.7536621-142.6205254-55.7487183,55.6967888-106.2197266,106.1207695-142.7536011,142.6205711-18.3179321,18.2569733-33.1418762,33.0315552-43.386322,43.2419128-5.1322021,5.0951691-9.1173096,9.0514984-11.8193665,11.7340851-1.3560486,1.3362122-2.3901672,2.3551941-3.0852661,3.0401459-.6976624.682373-1.0667114,1.0202484-1.0667114,1.0202484Z"/>
              <path class="st6" d="M503.8973694,224.0032043s.299408-.3270416.9040833-.9452667c.6069946-.6159821,1.5099487-1.5323639,2.6940613-2.7340393,2.3771973-2.3944702,5.8831482-5.9259033,10.3982239-10.4738312,9.0480347-9.0782318,22.140625-22.2145691,38.3192139-38.4471741,32.4476318-32.4778442,77.2736206-77.3455276,126.7869873-126.9050102,49.5134277,49.5594673,94.3394165,94.4271355,126.7871094,126.9049644,16.1785889,16.232605,29.2711792,29.3689575,38.3191528,38.4471741,4.5151367,4.5479279,8.0210571,8.079361,10.3982544,10.4738312,1.1841431,1.2016754,2.0870972,2.1180573,2.6940918,2.7340393.6046753.6182251.9040527.9452667.9040527.9452667,0,0-.3270264-.299408-.9452515-.9040985-.6159668-.6069794-1.5323486-1.5099487-2.7340088-2.6940613-2.3944702-2.377182-5.9259033-5.8831329-10.473877-10.3982391-9.078186-9.0480042-22.2145386-22.1406097-38.4471436-38.3191833-32.3748169-32.3445892-77.1000977-77.0282059-126.5023804-126.3843689-49.4021606,49.3561783-94.1275024,94.0397949-126.5022583,126.3843994-16.232605,16.1785736-29.3689575,29.2711945-38.4472046,38.3191833-4.5479126,4.5151215-8.0793457,8.0210724-10.4738159,10.3982544-1.2016602,1.1841125-2.118042,2.0870819-2.7340393,2.6940613-.6182251.6046906-.9452515.9040985-.9452515.9040985Z"/>
              <path class="st11" d="M526.9060669,200.9945068s.2609253-.2850342.7879639-.8238373c.5289917-.53685,1.315918-1.335495,2.3479004-2.3827972,2.0718384-2.0868683,5.1273804-5.1646271,9.062439-9.1282959,7.8856201-7.911972,19.2962646-19.3607483,33.3964844-33.5080109,28.2791748-28.3055191,67.3464966-67.4092102,110.4990845-110.6019554,43.1526489,43.1927376,82.2199707,82.2964134,110.4992065,110.6019249,14.1001587,14.1472626,25.5108032,25.5960236,33.3964233,33.5079956,3.9351196,3.9636841,6.9906616,7.0414429,9.062439,9.1282959,1.0319824,1.0473022,1.8189697,1.8459473,2.3479614,2.3827972.5270386.5388031.7879639.8238373.7879639.8238373,0,0-.2850342-.2609406-.8238525-.7879486-.5368652-.529007-1.3355103-1.315979-2.3828125-2.3479614-2.086853-2.0717926-5.1646118-5.1273499-9.1282959-9.0624237-7.9119263-7.8856201-19.3607178-19.2962799-33.5079956-33.3964386-28.2156982-28.1893997-67.1953125-67.1326599-110.2510376-110.1482086-43.0556641,43.0155563-82.0352783,81.9588318-110.2509766,110.1482391-14.1472168,14.1001587-25.5960083,25.5108185-33.5079956,33.3964539-3.9636841,3.9350739-7.0414429,6.9906158-9.1282959,9.0624237-1.0473022,1.0319824-1.8459473,1.8189545-2.3828125,2.3479614-.5387573.5269928-.8237915.7879486-.8237915.7879486Z"/>
            </g>
          </g>
        </g>
        <g class="st15">
          <g class="st15">
            <g class="st12">
              <path d="M839.298584,104.7010117c.0080566,0,.0160522.1201172.0240479.3586273.0053101.2385864.0132446.5954666.0238037,1.0689926.010498.9472351.0262451,2.3610611.0469971,4.2277908.0205688,3.7336349.0510864,9.2788696.0910034,16.5256271.0383911,14.4936829.0949097,35.793457.1671143,63.018158.0603027,54.5943909.1468506,132.9515076.2518921,228.0028076-87.593811.0274048-197.019043.0615845-313.9048462.098114.036499-116.8858032.0706177-226.3109741.0979614-313.9047928,95.0513306.10495,173.4084473.1914749,228.0028076.2517548,27.2247314.0721893,48.5244751.1286697,63.0181885.1671066,7.2467651.0398941,12.7919922.0704269,16.5256348.0909805,1.8666992.0207443,3.2805176.0364609,4.2277832.0469818.4735107.0105515.8303833.0185089,1.0689697.0238266.2385254.0079727.3586426.0159836.3586426.024025s-.1201172.0160446-.3586426.024025c-.2385864.0053177-.595459.0132675-1.0689697.023819-.9472656.0105286-2.361084.0262451-4.2277832.0469894-3.7336426.0205612-9.2788696.0510864-16.5256348.0909882-14.4937134.0384445-35.793457.0949326-63.0181885.1671371-54.3047485.0603104-132.2462158.1468735-226.7932739.2518768.0273438,86.86409.0615845,195.377655.0980835,311.2897034,115.9120483.036499,224.4256592.0706177,311.2897339.0979614.1049805-94.5470886.1914673-172.4885254.25177-226.7932892.0722046-27.2247162.1286621-48.5244904.1671143-63.0181732.039856-7.2467575.0704346-12.7919922.0909424-16.5256271.020752-1.8667297.036499-3.2805557.0469971-4.2277908.0105591-.473526.0184937-.8304062.0238037-1.0689926.0079956-.2385101.0159912-.3586273.0240479-.3586273Z"/>
              <path class="st5" d="M839.298584,137.9841309c.0073853,0,.0147095.1062622.0219727.3173523.0048828.2111511.012207.5270386.0218506.9462891.0096436.8386536.0240479,2.090744.0430298,3.7448578.0188599,3.3083954.046814,8.2248383.0834961,14.6573792.0353394,12.8652344.0873413,31.7948303.1539307,56.0526276.0563354,48.6493225.1374512,118.6701355.2364502,204.1562805-86.0586548.0287476-195.9317627.0654297-313.8233032.1048279.0393066-117.89151.0759888-227.7646332.1046753-313.823288,85.486145.0989456,155.506958.1800003,204.15625.2363129,24.2578125.0666199,43.187439.1186142,56.0526733.1539459,6.4324951.0366287,11.348938.064621,14.6573486.0834579,1.6541138.0190125,2.906189.0334015,3.744873.043045.4192505.0096588.7351074.0169449.9462891.0218124.2110596.0073013.3173218.0146255.3173218.0219879,0,.0073547-.1062622.0146866-.3173218.0219879-.2111816.0048676-.5270386.012146-.9462891.0218124-.8386841.0096436-2.0907593.0240326-3.744873.043045-3.3084106.018837-8.2248535.0468369-14.6573486.0834656-12.8652344.0353394-31.7948608.0873413-56.0526733.1539764-48.3821411.0563431-118.0183105.1374283-203.0349731.2364197.0287476,85.3862534.0654297,194.4008713.1047974,311.3712387,116.9703979.0393372,225.9850464.0759583,311.3712769.1046753.098938-85.0166321.1799927-154.6528625.2363281-203.0350037.0665894-24.2577972.1185913-43.1873932.1539307-56.0526276.0366211-6.4325409.0646362-11.3489838.0834351-14.6573792.019043-1.6541138.0334473-2.9062042.0430908-3.7448578.0096436-.4192505.0169067-.7351379.0217896-.9462891.0073242-.2110901.0146484-.3173523.0219727-.3173523Z"/>
              <path class="st1" d="M839.298584,171.2672577c.0067139,0,.0133667.0926971.0199585.276886.0044556.1842651.0110474.4599609.0198364.825943.008728.732132.0217896,1.82547.0390625,3.2706604.0171509,2.8905029.0426025,7.1883545.0759277,12.8180084.0322266,11.2594299.0797119,27.8460541.1407471,49.1550598.0522461,42.7404938.1276855,104.4247894.2203369,180.2002716-84.592041.0302429-194.8446045.0697021-313.7410278.1122437.0424805-118.8964233.0818481-229.1489716.1120605-313.7410507,75.7755127.0926285,137.4597778.1680374,180.2003174.2202759,21.30896.060997,37.8956299.1084747,49.1550293.1407013,5.6296387.0333405,9.9274902.0587997,12.8179932.0759201,1.4451904.0172729,2.5385742.0303421,3.2706909.039093.3659668.0087738.6416626.0153885.8259277.0198059.1842041.0066223.2769165.0132751.2769165.0199509s-.0927124.0133286-.2769165.0199585c-.1842651.0044174-.4599609.0110245-.8259277.0197983-.7321167.0087509-1.8255005.0218201-3.2706909.039093-2.8905029.017128-7.1883545.0425873-12.8179932.0759277-11.2593994.0322342-27.8460693.0797195-49.1550293.1407242-42.4958496.052269-103.8270264.1277084-179.1686401.2203751.0302124,83.9753113.0697021,193.4239655.1121826,311.453476,118.029541.0424805,227.4782104.0818787,311.4534912.1120911.0926514-75.3416748.1680298-136.6728516.2202759-179.1686554.0610352-21.3090057.1085205-37.8956299.1407471-49.1550598.0333252-5.6296539.0587769-9.9275055.0758667-12.8180084.0172729-1.4451904.0303955-2.5385284.0391235-3.2706604.0087891-.3659821.0153809-.6416779.0197754-.825943.0066528-.1841888.0133057-.276886.0199585-.276886Z"/>
              <path class="st0" d="M839.298584,204.5503845c.0060425,0,.0120239.0794525.0179443.2374115.0039673.15802.0098877.394455.0177612.7084045.0078735.6280365.0196533,1.5661774.0351562,2.8068085.0154419,2.4813995.0383301,6.1727905.0683594,11.013031.0291748,9.680603.0720825,23.9565887.1273804,42.3383789.0480957,36.8747864.1176758,90.2224121.2036743,156.1140137-83.2069702.0319519-193.7575684.0744324-313.65802.1204834.0460205-119.9004517.0884399-230.4510498.1203003-313.6579819,65.8916016.0859146,119.2392578.1554718,156.1140137.2035522,18.3818359.0552826,32.6577759.0982208,42.3383789.1273346,4.840271.0300446,8.5316772.0529633,11.0130615.068367,1.2406006.0155334,2.178772.0272751,2.8068237.035141.3139038.0078812.550354.0138168.708374.0177841.157959.0059586.2374268.0119247.2374268.0179214s-.0794678.0119705-.2374268.0179214c-.15802.0039673-.3944702.009903-.708374.0177841-.6280518.0078659-1.5662231.0196152-2.8068237.0351486-2.4813843.0154037-6.1727905.0383224-11.0130615.068367-9.680603.0291214-23.956543.0720673-42.3383789.1273575-36.6526489.0481033-89.6789551.117691-155.173645.2036438.0319214,82.6441727.0744019,192.4470596.1204224,311.5365372,119.0895386.04599,228.892395.0884094,311.5365601.1203003.0859375-65.4947205.1555176-118.5209961.2035522-155.1736755.0552979-18.3817902.0982666-32.6577759.1273804-42.3383789.0300293-4.8402405.0529175-8.5316315.0683594-11.013031.0155029-1.2406311.0272827-2.178772.0350952-2.8068085.0079346-.3139496.013855-.5503845.0178223-.7084045.0059204-.157959.0119019-.2374115.0178833-.2374115Z"/>
              <path class="st19" d="M839.298645,237.8335114s.0211792.26651.0316162.7933502c.007019.5269165.017395,1.3140869.031189,2.3554382.0137329,2.08284.0340576,5.1823578.060791,9.2494049.026001,8.1342316.0643921,20.138504.1138916,35.6190338.0438232,31.0609741.1073608,76.0717163.1860962,131.8710938-81.9195557.0338745-192.6704102.0796509-313.5739746.1296692.0499268-120.903595.0957031-231.6544189.1295166-313.573967,55.7993774.0787201,100.8101196.1422272,131.8710938.1860428,15.4805298.0494766,27.4848022.0878448,35.6190186.1138382,4.0670776.0267258,7.1665649.0470963,9.2493896.0607834,1.0413818.0137863,1.8285522.0242157,2.3554688.031189.5268555.0104752.793335.0316544.793335.0316544,0,0-.2664795.0211792-.793335.031662-.5269165.0069733-1.3140869.0174026-2.3554688.031189-2.0828247.0136871-5.182312.0340576-9.2493896.0607834-8.1342163.026001-20.1384888.0643768-35.6190186.1138611-30.8614502.0438385-75.5830688.1073608-131.0239868.1861115.0338745,81.4092407.0796509,191.4701691.1296387,311.6205597,120.1504517.0499268,230.2113647.0956726,311.6206055.1295166.0787354-55.4409485.1422119-100.1625366.1860352-131.0239868.0494995-15.4805298.0878296-27.4848022.1138306-35.6190338.0267334-4.0670471.0471191-7.1665649.060791-9.2494049.0137939-1.0413513.024231-1.8285217.031189-2.3554382.010498-.5268402.0316772-.7933502.0316772-.7933502Z"/>
              <path class="st18" d="M839.298645,271.1166382s.0184326.2171631.0275879.6464539c.0061035.4293518.0151978,1.0707397.0272217,1.9192505.0119629,1.6970825.0297852,4.2225342.0531616,7.5361328.0228882,6.6273193.0567017,16.4073181.1002197,29.0181885.0394897,25.3103943.0967407,61.9840698.1676636,107.437439-80.7509766.0360413-191.5831299.0855408-313.4888306.1399841.0543823-121.9057007.1038208-232.737854.1398315-313.4888229,45.4533691.0709076,82.1270142.1281128,107.437439.1675949,12.6108398.043541,22.3908691.0773087,29.0181885.1001892,3.3135986.0233765,5.8390503.0411987,7.5361328.0531693.8485107.0120392,1.4898682.0211411,1.9192505.0272293.4292603.00914.6464233.0276108.6464233.0276108,0,0-.2171631.0184631-.6464233.0276031-.4293823.0060883-1.0707397.0151901-1.9192505.0272293-1.6970825.0119705-4.2225342.0297928-7.5361328.0531769-6.6273193.0228806-16.4073486.0566559-29.0181885.1002045-25.1333008.0394974-61.550415.0967178-106.685791.1676483.0360718,80.2916718.0855713,190.4933929.1399536,311.7057037,121.2123413.0543823,231.4140625.1038208,311.7057495.1398315.0709229-45.135376.1281128-81.5524597.1676025-106.685791.0435181-12.6108704.0772705-22.3908691.1001587-29.0181885.0233765-3.3135986.0411987-5.8390503.0531616-7.5361328.012085-.8485107.0211792-1.4898987.0272217-1.9192505.0091553-.4292908.0276489-.6464539.0276489-.6464539Z"/>
              <path class="st7" d="M839.298645,304.3997803s.0153809.1628723.0230103.4856567c.005127.3228455.0126953.8055115.0227661,1.4450989.0100098,1.2792664.0249634,3.1862183.0446167,5.6970215.0192261,5.021698.0476685,12.4589233.0846558,22.1211548.0339966,19.3992004.0835571,47.7328186.1461182,83.4706726-75.284729.0377808-188.0246582.0943604-313.3967285.1572876.0628662-125.3720703.1193848-238.111969.1571045-313.3966904,35.737854.0625153,64.0714722.1120834,83.4707031.146019,9.6622314.0369873,17.0994263.0654602,22.1211548.0846863,2.5108032.0196457,4.4177246.0345688,5.6970215.0445786.6395874.0100708,1.1222534.0176697,1.4450684.0227585.3228149.0076294.4857178.0230408.4857178.0230408,0,0-.1629028.0154037-.4857178.0230408-.3228149.0050812-.805481.0126801-1.4450684.0227585-1.2792969.0100098-3.1862183.0249329-5.6970215.0445786-5.0217285.0192261-12.4589233.047699-22.1211548.0847015-19.249939.0339432-47.3656006.0835266-82.8284302.1460648.0377808,74.9006424.0943604,187.0654068.1572266,311.7978287,124.7324829.0628662,236.8972168.1193848,311.7978516.157135.062561-35.4628906.1121216-63.5784912.1460571-82.8284607.0369873-9.6622314.0654297-17.0994568.0846558-22.1211548.0196533-2.5108032.0346069-4.4177551.0446167-5.6970215.0100708-.6395874.0176392-1.1222534.0227051-1.4450989.0076294-.3227844.0230713-.4856567.0230713-.4856567Z"/>
              <path class="st13" d="M839.298645,337.6828918s.0120239.1070862.0179443.3206177c.0039673.2135925.0098877.5335693.0177612.9593201.0078125.8516541.0194702,2.1264343.0349731,3.8193054.0150146,3.3858643.0374146,8.4440002.0670776,15.1333618.0270386,13.4369202.0672607,33.4271545.1199951,59.6404724-65.7017212.0384521-181.979126.1064758-313.2958984.1832886.0767822-131.3167725.1447144-247.594162.1831055-313.2958755,26.2133789.0527191,46.2035522.0929184,59.6405029.1199417,6.6893311.0296555,11.7474976.0520782,15.1333618.0670853,1.6928711.0154877,2.9676514.0271454,3.8192749.034935.4257812.0078888.7457275.0138168.9593506.0177765.213501.0059509.3206177.017952.3206177.017952,0,0-.1071167.0119934-.3206177.017952-.213623.0039597-.5335693.0098801-.9593506.0177689-.8516235.0077896-2.1264038.019455-3.8192749.0349426-3.3858643.0150146-8.4440308.0374374-15.1333618.0670929-13.3208008.0270309-33.1382446.0672455-59.125061.1199722.0384521,65.4086914.1064453,181.1675415.1832275,311.8986511,130.7311401.0767517,246.4899902.1447144,311.8986816.1831055.0527344-25.9867859.0928955-45.8042603.1199341-59.125061.0296631-6.6893616.052063-11.7474976.0670776-15.1333618.0155029-1.6928711.0271606-2.9676514.0349731-3.8193054.0078735-.4257507.0137939-.7457275.0177612-.9593201.0059204-.2135315.0179443-.3206177.0179443-.3206177Z"/>
              <path class="st8" d="M839.298645,370.9660339s.0171509.2395935.0256348.7194519c.0056152.4798889.0139771,1.1999512.0252075,2.1609192.0108032,1.9219971.0270996,4.8074951.0488892,8.6616516.0200806,7.7505798.050293,19.3970032.0906372,34.9805603-56.6394653.0385742-175.9351807.1197815-313.1911011.2132263.0933838-137.2558899.1745605-256.551651.2130737-313.1911011,15.5835571.0403671,27.2299805.0705414,34.9805298.0906143,3.854187.0217667,6.7396851.038063,8.6616821.0489197.9609375.0112,1.6810303.0195923,2.1609497.0251846.4797974.0084763.7194214.0256195.7194214.0256195,0,0-.239624.0171432-.7194214.0256195-.4799194.0055923-1.2000122.0139847-2.1609497.0251923-1.9219971.010849-4.8074951.0271454-8.6616821.048912-7.6661987.0200882-19.1859131.0502625-34.5998535.0906372.0385742,56.4246597.119812,175.2680435.2131958,312.0034256,136.7354126.0933838,255.5787964.17453,312.003479.2130432.0403442-15.4139404.0704956-26.9336243.0905762-34.5998535.0217896-3.8541565.0380859-6.7396545.0489502-8.6616516.0111694-.960968.0195923-1.6810303.0251465-2.1609192.0084839-.4798584.0256348-.7194519.0256348-.7194519Z"/>
              <path class="st17" d="M839.298645,404.2491455s.0128784.1480713.0192261.5370789c.0037231.3890381.0097656,1.0189209.0189819,1.9825439.0067749,1.9411011.0182495,5.2266541.0369873,10.6047058-12.3469849.0240173-51.2928467.0997925-106.781311.2077332-55.5480957.0224304-127.6563721.0515137-206.2572021.0832214.0316772-78.6008301.06073-150.7090759.0831299-206.2571716.1079102-55.4884644.1836548-94.4343643.2077026-106.7813568,5.3779907.0187836,8.6635742.0302505,10.6046753.0370331.963623.0092087,1.5935059.0152283,1.9825439.0189438.3889771.0063629.5370483.0192108.5370483.0192108,0,0-.1480713.0128479-.5370483.0192108-.3890381.0037155-1.0189209.0097427-1.9825439.0189514-1.9135742.0067749-5.1525269.0182495-10.4543457.0370331.0240479,12.3296051.0997925,51.2206497.2077637,106.6309738.0223999,55.3509216.0515137,127.2032166.0831909,205.5250244,78.3218384.0316772,150.1741333.06073,205.5250854.0830994,55.4102783.1079407,94.3013306.1836853,106.6309204.2077026.0187988-5.3017578.0302734-8.540741.0370483-10.4543152.0092163-.963623.0152588-1.5935059.0189819-1.9825439.0063477-.3890076.019165-.5370789.019165-.5370789Z"/>
              <path class="st9" d="M819.0646973,417.2982788s-.5113525.0225525-1.5094604.0335999c-.9981689.0073547-2.4830933.01828-4.4303589.0326233-3.8945923.0141296-9.6383667.0349121-17.0355835.0617065-14.7943726.0246582-36.2022095.0603638-62.6558228.1044922-52.9915161.0246277-126.1984863.0586853-207.06073.0963135.0375977-80.8622437.0715942-154.0692139.0961914-207.0606995.0441284-26.4536591.079834-47.8614502.1044922-62.6558685.0267944-7.397171.0475464-13.1409912.0616455-17.0355682.0143433-1.9472504.0253296-3.4321823.0326538-4.4303436.0110474-.9981308.0336304-1.5094376.0336304-1.5094376,0,0,.022522.5113068.0335693,1.5094376.0073853.9981613.0183105,2.4830933.0326538,4.4303436.0140991,3.894577.0349121,9.6383972.0617065,17.0355682.0246582,14.7944183.0603638,36.2022095.1044312,62.6558685.0246582,52.8232727.0587158,125.7978516.0963135,206.4033813,80.6055298.0375671,153.5801392.0715942,206.4034424.0962219,26.4536133.0440979,47.8614502.0797729,62.6558228.1044312,7.3972168.0267944,13.1409912.0475769,17.0355835.0617065,1.9472656.0143433,3.4321899.0252686,4.4303589.0326233.9981079.0110474,1.5094604.0335999,1.5094604.0335999Z"/>
              <path class="st6" d="M785.7815552,417.2982788s-.453125.019989-1.3375854.0297852c-.8845825.0065002-2.2004395.0162048-3.9260254.0289307-3.4511719.0124817-8.5411377.0309143-15.0961914.054657-13.1102295.0218506-32.0808716.0534973-55.5230103.0925903-46.9588623.0218506-111.8318481.052002-183.4885864.0853577.0333252-71.6567383.0634766-136.5297241.0852661-183.4885712.0390625-23.4421234.0706787-42.4128113.0925903-55.5230103.0236816-6.555069.0421143-11.6450043.0546265-15.0962067.0126953-1.7255707.0223999-3.0414581.0289307-3.9259949.0097656-.884491.0297852-1.3376007.0297852-1.3376007,0,0,.0199585.4531097.0297852,1.3376007.0064697.8845367.0161743,2.2004242.0288696,3.9259949.0125122,3.4512024.0309448,8.5411377.0546875,15.0962067.0218506,13.110199.0535278,32.0808868.0925903,55.5230103.0218506,46.8097687.052002,111.4768219.0853271,182.9060822,71.4292603.0332947,136.0963135.063446,182.9061279.0852661,23.4420776.0390625,42.4127808.0707092,55.5230103.0925598,6.5550537.0237427,11.6450195.0421448,15.0961914.054657,1.7255859.0126953,3.0414429.0223999,3.9260254.0289001.8844604.0097961,1.3375854.0297852,1.3375854.0297852Z"/>
              <path class="st11" d="M752.4984131,417.2982788s-.3948975.0174255-1.1657715.0259705c-.770874.0056763-1.9177246.0141296-3.4216309.0252075-3.0078125.0108948-7.4439087.026947-13.1568604.0476379-11.4259644.019043-27.9595337.0466309-48.3901367.0806885-40.9262085.019043-97.46521.0453491-159.9164429.0744019.0290527-62.4512329.0552979-118.9902344.0743408-159.9164124.0340576-20.430603.0615845-36.9642029.0806274-48.3901825.0206909-5.7129517.0367432-10.1490021.0476685-13.1568451.0110474-1.503891.0195312-2.6507416.0252075-3.4216309.0084839-.770874.0259399-1.1657715.0259399-1.1657715,0,0,.017395.3948975.0259399,1.1657715.0056763.7708893.0141602,1.9177399.0252075,3.4216309.0108643,3.007843.0269775,7.4438934.0476685,13.1568451.019043,11.4259796.0466309,27.9595795.0806885,48.3901825.019043,40.7962646.0453491,97.1557617.0743408,159.4087524,62.2529907.0290222,118.6124878.0552979,159.4088135.0743103,20.430603.0340576,36.9641724.061615,48.3901367.080658,5.7129517.0206909,10.1490479.0367432,13.1568604.0476379,1.5039062.0110779,2.6507568.0195312,3.4216309.0252075.770874.0085449,1.1657715.0259399,1.1657715.0259399Z"/>
            </g>
          </g>
          <g class="st15">
            <g class="st12">
              <path d="M526.701416,417.2983398c-.0080566,0-.0160522-.1201172-.0240479-.3586121-.0053101-.2385864-.0132446-.595459-.0238037-1.0690002-.0105591-.9472351-.0262451-2.3610535-.0469971-4.2277832-.0205688-3.7336426-.0510864-9.2788696-.0910034-16.5256348-.0383911-14.4936829-.0949097-35.793457-.1671143-63.018158-.0603027-54.5943909-.1468506-132.9515076-.2518921-228.0028152,87.593811-.0273819,197.019043-.0615845,313.9048462-.098114-.036499,116.8857956-.0706177,226.3109818-.0979614,313.9047928-95.0513306-.10495-173.4084473-.1914673-228.0028076-.2517395-27.2247314-.0722046-48.5244751-.1286621-63.0181885-.1671143-7.2467651-.0398865-12.7919922-.0704346-16.5256348-.0909729-1.8666992-.020752-3.2805176-.0364685-4.2277832-.0469971-.4735107-.0105286-.8303833-.0184937-1.0689697-.0238037-.2385254-.0079956-.3586426-.0159912-.3586426-.0240479,0-.0080261.1201172-.0160217.3586426-.0240173.2385864-.0053101.595459-.0132751,1.0689697-.0238037.9472656-.0105286,2.361084-.0262451,4.2277832-.0469971,3.7336426-.0205688,9.2788696-.0510864,16.5256348-.0910034,14.4937134-.0384216,35.793457-.0949097,63.0181885-.1671143,54.3047485-.0603333,132.2462158-.1468811,226.7932739-.2518921-.0274048-86.8640747-.0615845-195.3776703-.0980835-311.289711-115.9120483-.0364761-224.4256592-.0706177-311.2897339-.0979538-.1049805,94.5470734-.1914673,172.4885254-.25177,226.7933044-.0722046,27.2247009-.1286621,48.5244751-.1671143,63.018158-.039856,7.2467651-.0704346,12.7919922-.0909424,16.5256348-.020752,1.8667297-.036499,3.2805481-.0469971,4.2277832-.0105591.4735413-.0184937.8304138-.0238647,1.0690002-.0079346.2384949-.0159302.3586121-.0239868.3586121Z"/>
              <path class="st5" d="M526.701416,384.0152283c-.0073853,0-.0147095-.1062622-.0220337-.3173523-.0048218-.2111511-.012146-.5270386-.0217896-.9462891-.0096436-.8386536-.0240479-2.0907593-.0430298-3.744873-.0188599-3.3083801-.046875-8.224823-.0834961-14.6573486-.0353394-12.8652344-.0873413-31.7948303-.1539307-56.0526428-.0563965-48.6493225-.1374512-118.6701202-.2364502-204.1562653,86.0586548-.0287476,195.9317627-.0654449,313.8233032-.1048203-.0393677,117.8915024-.0759888,227.7646255-.1046753,313.8232803-85.486145-.0989685-155.506958-.1800232-204.156311-.2363281-24.2577515-.0666199-43.1873779-.1186218-56.0526123-.1539307-6.4324951-.0366516-11.348938-.0646362-14.6573486-.0834656-1.6541138-.0190125-2.90625-.0334167-3.744873-.0430603-.4192505-.0096436-.7351074-.0169373-.9462891-.0217896-.2110596-.0073242-.3173218-.0146484-.3173218-.0220032s.1062622-.014679.3173218-.0219727c.2111816-.0048828.5270386-.012146.9462891-.0218201.838623-.0096436,2.0907593-.0240479,3.744873-.0430603,3.3084106-.0188293,8.2248535-.046814,14.6573486-.0834656,12.8652344-.0353394,31.7948608-.0873413,56.0526123-.1539612,48.3821411-.0563354,118.0183716-.1374207,203.0350342-.2364197-.0287476-85.386261-.0654297-194.4008789-.1047974-311.371254-116.9703979-.0393143-225.9850464-.0759583-311.3712769-.10466-.098938,85.0166397-.1799927,154.6528549-.2363281,203.034996-.0665894,24.2578125-.1185913,43.1874084-.1539307,56.0526428-.0366211,6.4325256-.0646362,11.3489685-.0834351,14.6573486-.019043,1.6541138-.0334473,2.9062195-.0430908,3.744873-.0096436.4192505-.0169067.7351379-.0217896.9462891-.0073242.2110901-.0146484.3173523-.0219727.3173523Z"/>
              <path class="st1" d="M526.701416,350.7320862c-.0067139,0-.0133667-.0926819-.0199585-.276886-.0044556-.1842651-.0110474-.4599304-.0198364-.8259277-.008728-.7321167-.0217896-1.82547-.0390625-3.2706604-.0171509-2.8905029-.0426025-7.1883545-.0759277-12.8179932-.0322266-11.2594299-.0797119-27.8460693-.1407471-49.1550598-.0522461-42.740509-.1276855-104.4248047-.2203979-180.2002792,84.5921021-.0302582,194.8446655-.0697021,313.7410889-.112236-.0424805,118.8964081-.0819092,229.148941-.1121216,313.7410431-75.7754517-.0926208-137.4597168-.1680298-180.2002563-.2202759-21.309021-.0610046-37.8956299-.10849-49.1550293-.1407166-5.6296387-.0333252-9.9274902-.0587769-12.8180542-.0758972-1.4451294-.0172729-2.5385132-.030365-3.2706299-.039093-.3659668-.0087891-.6416626-.0154114-.8259277-.0198059-.1842041-.0066223-.2769165-.0132751-.2769165-.0199585s.0927124-.0133362.2769165-.0199585c.1842651-.004425.4599609-.0110168.8259277-.0198059.7321167-.0087585,1.8255005-.0218201,3.2706299-.039093,2.890564-.0171204,7.1884155-.042572,12.8180542-.0759277,11.2593994-.0322266,27.8460083-.0797119,49.1550293-.1407166,42.4958496-.0522766,103.8269653-.1277161,179.1686401-.2203674-.0302124-83.9753113-.0697021-193.423996-.1121826-311.4534988-118.029541-.0424728-227.4782104-.0818558-311.4534912-.1120682-.0926514,75.3416748-.1680298,136.6728363-.2202759,179.1686554-.0610352,21.3089905-.1085205,37.8956299-.1407471,49.1550598-.0333252,5.6296387-.0587769,9.9274902-.0759277,12.8179932-.0172729,1.4451904-.0303345,2.5385437-.0390625,3.2706604-.0087891.3659973-.0153809.6416626-.0197754.8259277-.0066528.1842041-.0133057.276886-.0199585.276886Z"/>
              <path class="st0" d="M526.701355,317.4489746c-.0059814,0-.0119629-.0794678-.0178833-.2373962-.0039673-.15802-.0098877-.3944702-.0178223-.7084045-.0078125-.6280518-.0195923-1.5661926-.0350952-2.8068237-.0154419-2.4813843-.0383301-6.1727905-.0684204-11.013031-.0291138-9.680603-.0720215-23.956604-.1273193-42.3383789-.0480957-36.8747864-.1176758-90.2223969-.2036743-156.114006,83.2069702-.0319595,193.7575684-.0744247,313.65802-.1204758-.0460205,119.9004517-.0884399,230.4510345-.1203003,313.6579742-65.8916626-.085907-119.2392578-.1554871-156.1140137-.2035522-18.3818359-.0552979-32.6577759-.0982361-42.3384399-.1273499-4.84021-.0300293-8.5316162-.052948-11.0130005-.0683594-1.2406006-.0155334-2.178772-.0272827-2.8068237-.0351257-.3139648-.0079041-.550354-.0138245-.708374-.0177917-.157959-.0059509-.2374268-.0119324-.2374268-.0179138,0-.006012.0794678-.0119934.2374268-.0179443.15802-.0039673.3944092-.0098877.708374-.0177612.6280518-.0078735,1.5662231-.0196228,2.8068237-.0351562,2.4813843-.0154114,6.1727905-.0383301,11.0130005-.0683594,9.6806641-.0291443,23.956604-.0720825,42.3384399-.1273804,36.6526489-.0480957,89.6789551-.1176758,155.173645-.2036438-.0319214-82.644165-.0744019-192.4470367-.1204834-311.5365372-119.0894775-.04599-228.892334-.0883865-311.536499-.1203003-.0859375,65.4947128-.1555176,118.5210037-.2035522,155.1736832-.0552979,18.3817749-.0982666,32.6577759-.1273804,42.3383789-.0300293,4.8402405-.0529175,8.5316467-.0683594,11.013031-.0155029,1.2406311-.0272827,2.178772-.0351562,2.8068237-.0078735.3139343-.0137939.5503845-.0177612.7084045-.0059204.1579285-.0119019.2373962-.0179443.2373962Z"/>
              <path class="st19" d="M526.701355,284.165863s-.0211792-.26651-.0316162-.7933655c-.007019-.5269165-.017395-1.3140869-.031189-2.3554382-.0137329-2.0828247-.0340576-5.182373-.060791-9.2493896-.026001-8.1342468-.0643921-20.1385193-.1138916-35.6190643-.0438232-31.0609589-.1073608-76.0716858-.1860962-131.8710709,81.9195557-.0338745,192.6704102-.0796661,313.5739746-.1296616-.0499268,120.9035645-.0957031,231.6544037-.1295166,313.5739594-55.7993774-.0787354-100.8101196-.1422424-131.8710938-.1860352-15.4805298-.0494995-27.4848022-.0878601-35.6190186-.1138611-4.0670776-.0267029-7.1665649-.0470886-9.2494507-.0607605-1.0413208-.0137939-1.8284912-.024231-2.3554077-.031189-.5268555-.010498-.793335-.0316772-.793335-.0316772,0,0,.2664795-.0211792.793335-.0316467.5269165-.0069885,1.3140869-.017395,2.3554077-.031189,2.0828857-.0137024,5.182373-.0340576,9.2494507-.060791,8.1342163-.026001,20.1384888-.0643616,35.6190186-.1138611,30.8614502-.0438232,75.5830688-.1073608,131.0239868-.1860962-.0338745-81.4092407-.0796509-191.4701691-.1296997-311.6205826-120.1503906-.0499268-230.2113037-.095665-311.6205444-.1294937-.0787354,55.4409332-.1422119,100.1625366-.1860352,131.0239563-.0494995,15.480545-.0878296,27.4848175-.1138306,35.6190643-.0267334,4.0670166-.0471191,7.1665649-.060791,9.2493896-.0137939,1.0413513-.024231,1.8285217-.031189,2.3554382-.010498.5268555-.0316772.7933655-.0316772.7933655Z"/>
              <path class="st18" d="M526.701355,250.8827209s-.0184326-.2171631-.0275879-.6464539c-.0061035-.4293365-.0151978-1.0707397-.0272217-1.9192352-.0119629-1.6970978-.0297852-4.2225342-.0531616-7.5361481-.0228882-6.6273193-.0567017-16.4073181-.1002197-29.0181885-.0394897-25.3103943-.0967407-61.9840698-.1676636-107.4374313,80.7509766-.0360565,191.5831299-.0855408,313.4888306-.1399765-.0543823,121.9057007-.1038208,232.7378387-.1398315,313.4888153-45.4533691-.0709229-82.1270142-.1281128-107.437439-.1676025-12.6108398-.0435486-22.3908691-.077301-29.0181885-.1001892-3.3135986-.0233765-5.8390503-.0411987-7.5361328-.0531616-.8485107-.0120544-1.4899292-.0211487-1.9192505-.0272217-.4292603-.0091553-.6464233-.0276184-.6464233-.0276184,0,0,.2171631-.0184631.6464233-.0276184.4293213-.006073,1.0707397-.0151672,1.9192505-.0272217,1.6970825-.0119629,4.2225342-.0297852,7.5361328-.0531616,6.6273193-.0228882,16.4073486-.0566711,29.0181885-.1002197,25.1333008-.0394897,61.550415-.0967102,106.685791-.1676331-.0360718-80.291687-.0855713-190.4934235-.1400146-311.7057266-121.2122803-.0543671-231.4140015-.1037979-311.7056885-.1398087-.0709229,45.1353607-.1281128,81.5524597-.1676025,106.6857758-.0435181,12.6108704-.0772705,22.3908539-.1001587,29.0181885-.0233765,3.3136139-.0411987,5.8390503-.0531616,7.5361481-.012085.8484955-.0211792,1.4898987-.0272827,1.9192352-.0090942.4292908-.0275879.6464539-.0275879.6464539Z"/>
              <path class="st7" d="M526.701355,217.5995941s-.0153809-.1628876-.0230103-.485672c-.005127-.3228302-.0126953-.8055115-.0227661-1.4450836-.0100098-1.2792969-.0249634-3.1862183-.0446167-5.6970215-.0192261-5.0217285-.0476685-12.4589386-.0846558-22.12117-.0339966-19.3992157-.0835571-47.7328186-.1461182-83.470665,75.284729-.0377808,188.0246582-.0943604,313.3967285-.15728-.0628662,125.3720551-.1193848,238.1119537-.1571045,313.3966827-35.737854-.0625305-64.0714722-.1120911-83.4707031-.1460266-9.6622314-.0369873-17.0994263-.0654602-22.1211548-.0846863-2.5108032-.0196533-4.4177246-.0345764-5.6970215-.0445862-.6395874-.0100708-1.1222534-.0176697-1.4451294-.0227356-.3227539-.0076294-.4856567-.0230408-.4856567-.0230408,0,0,.1629028-.0154114.4856567-.0230408.322876-.0050964.805542-.0126953,1.4451294-.0227661,1.2792969-.0100098,3.1862183-.0249329,5.6970215-.0445862,5.0217285-.0192261,12.4589233-.047699,22.1211548-.0846863,19.249939-.0339661,47.3655396-.0835266,82.8284302-.1460571-.0377808-74.9006653-.0943604-187.0654144-.1572876-311.7978592-124.7324219-.062851-236.8971558-.1193695-311.7977905-.1571045-.062561,35.462883-.1121216,63.5784836-.1460571,82.8284378-.0369873,9.6622314-.0654297,17.0994415-.0846558,22.12117-.0196533,2.5108032-.0346069,4.4177246-.0446167,5.6970215-.0100708.6395721-.0176392,1.1222534-.0227661,1.4450836-.0076294.3227844-.0230103.485672-.0230103.485672Z"/>
              <path class="st13" d="M526.701355,184.3164673s-.0120239-.1070862-.0179443-.3206329c-.0039673-.2135773-.0098877-.5335541-.0177612-.9593201-.0078125-.8516235-.0194702-2.1264191-.0349731-3.8192902-.0150146-3.385849-.0374146-8.443985-.0670776-15.1333618-.0270386-13.4369354-.0672607-33.4271393-.1199951-59.64048,65.7017212-.0384293,181.979126-.1064529,313.2958984-.1832657-.0767822,131.3167572-.1447144,247.594162-.1831055,313.2958527-26.2133789-.0527039-46.2035522-.0928955-59.6405029-.1199341-6.6893921-.0296631-11.7474976-.052063-15.1333618-.0670776-1.6928711-.0155029-2.9676514-.0271606-3.8192749-.0349426-.4257812-.0078735-.7457275-.0138245-.9593506-.0177612-.213501-.0059509-.3206177-.0179749-.3206177-.0179749,0,0,.1071167-.0119934.3206177-.0179443.213623-.0039673.5335693-.0098877.9593506-.0177612.8516235-.007782,2.1264038-.0194702,3.8192749-.0349426,3.3858643-.0150146,8.4439697-.0374451,15.1333618-.0671082,13.3208008-.0270081,33.1382446-.0672302,59.125061-.1199646-.0384521-65.4086914-.1064453-181.1675262-.1832886-311.8986588-130.7310791-.0767441-246.4899292-.1446991-311.8986206-.1830978-.0527344,25.9868011-.0929565,45.8042603-.1199341,59.125061-.0296631,6.6893768-.052124,11.7475128-.0670776,15.1333618-.0155029,1.6928711-.0271606,2.9676666-.0349731,3.8192902-.0078735.425766-.0137939.7457428-.0177612.9593201-.0059814.2135468-.0179443.3206329-.0179443.3206329Z"/>
              <path class="st8" d="M526.701355,151.0333405s-.0171509-.2396088-.0256348-.7194519c-.0056152-.4798889-.0139771-1.1999817-.0252075-2.1609192-.0108643-1.9220123-.0271606-4.8075104-.0488892-8.6616669-.0200806-7.7505798-.050293-19.3970032-.0906372-34.9805603,56.6394653-.038559,175.9351807-.1197739,313.1911011-.2132111-.0933838,137.2558746-.1745605,256.551651-.2130737,313.1910858-15.5835571-.0403748-27.2299805-.0705261-34.9805298-.0906067-3.854187-.021759-6.7396851-.0380554-8.6616821-.0489197-.9609375-.0112-1.6810303-.0195923-2.1609497-.025177-.4798584-.0084839-.7194214-.0256348-.7194214-.0256348,0,0,.239563-.0171509.7194214-.0256042.4799194-.0056152,1.2000122-.0140076,2.1609497-.0252075,1.9219971-.0108337,4.8074951-.0271301,8.6616821-.0489197,7.6661987-.0200806,19.1858521-.0502625,34.5998535-.0906372-.0385742-56.4246521-.119812-175.2680359-.2132568-312.0034256-136.7353516-.0933685-255.5787354-.1745148-312.003418-.2130432-.0403442,15.4139557-.0705566,26.9336319-.0905762,34.5998611-.0217896,3.8541565-.0380859,6.7396545-.0489502,8.6616516-.0111694.9609528-.0195923,1.6810455-.0252075,2.1609344-.0084229.4798431-.0255737.7194519-.0255737.7194519Z"/>
              <path class="st17" d="M526.701355,117.7502213s-.0128784-.1480865-.0192261-.5370789c-.0037231-.3890305-.0097656-1.0189209-.0189819-1.9825516-.0067749-1.9410934-.0182495-5.2266617-.0369873-10.6046906,12.3469849-.0240173,51.2928467-.0997925,106.781311-.2077484,55.5480957-.0224075,127.6563721-.0514984,206.2572021-.0832062-.0316772,78.6008148-.06073,150.7090759-.0831299,206.2571564-.1079102,55.4884644-.1836548,94.4343567-.2077026,106.7813721-5.3779907-.0187988-8.6635742-.0302734-10.6046753-.0370483-.963623-.0092163-1.5935059-.0152283-1.9825439-.0189514-.3889771-.0063477-.5370483-.0191956-.5370483-.0191956,0,0,.1480713-.0128479.5370483-.0192261.3890381-.0036926,1.0189209-.0097351,1.9825439-.0189514,1.9135742-.0067749,5.1525269-.0182495,10.4542847-.0370178-.0239868-12.3296204-.0997925-51.2206726-.2077026-106.6309814-.0223999-55.3509064-.0515137-127.2032166-.083252-205.525032-78.3217773-.031662-150.1740723-.0607147-205.5250244-.0830917-55.4102783-.1079254-94.3013306-.1836777-106.6309814-.207695-.0187378,5.3017654-.0302124,8.540741-.0369873,10.4543076-.0092163.9636307-.0152588,1.5935211-.0189819,1.9825516-.0063477.3889923-.019165.5370789-.019165.5370789Z"/>
              <path class="st9" d="M546.9353027,104.701088s.5113525-.0225525,1.5094604-.0336075c.9981689-.0073471,2.4830933-.0182877,4.4303589-.0326309,3.8945312-.0140991,9.6383667-.0349045,17.0355835-.0616913,14.7943726-.0246735,36.2022095-.0603714,62.6558228-.1044846,52.9915161-.0246506,126.1984863-.0587006,207.06073-.0963135-.0375977,80.8622284-.0715942,154.0691986-.0962524,207.0606842-.0440674,26.4536743-.0797729,47.8614502-.1044312,62.6558838-.0267944,7.3971558-.0475464,13.1409912-.0617065,17.035553-.0143433,1.9472656-.0252686,3.4321899-.0325928,4.4303589-.0110474.9981079-.0336304,1.5094299-.0336304,1.5094299,0,0-.022522-.511322-.0335693-1.5094299-.0073853-.9981689-.0183105-2.4830933-.0326538-4.4303589-.0140991-3.8945618-.0349121-9.6383972-.0617065-17.035553-.0246582-14.7944336-.0603638-36.2022095-.1044922-62.6558838-.0245972-52.8232422-.0586548-125.7978516-.0963135-206.4033813-80.6055298-.0375748-153.5800781-.0715866-206.4033813-.0962067-26.4536133-.0440979-47.8614502-.0797882-62.6558228-.1044464-7.3972168-.0267868-13.1410522-.0475845-17.0355835-.0616913-1.9472656-.0143433-3.4321899-.0252762-4.4303589-.0326309-.9981079-.0110474-1.5094604-.0335999-1.5094604-.0335999Z"/>
              <path class="st6" d="M580.2184448,104.7010803s.453125-.019989,1.3375854-.0297775c.8845825-.0065155,2.2004395-.0162125,3.9260254-.028923,3.4511719-.0124969,8.5411377-.0309296,15.0961914-.0546722,13.1102295-.0218582,32.0808716-.0534897,55.5230103-.0925827,46.9588623-.021843,111.8318481-.0520172,183.4885864-.08535-.0333252,71.656723-.0634766,136.5297089-.0852661,183.4885406-.0390625,23.4421387-.0707397,42.4128418-.0925903,55.5230408-.0236816,6.5550537-.0421143,11.644989-.0546265,15.0961914-.0126953,1.7255859-.0223999,3.0414734-.0289307,3.9259949-.0097656.884491-.0297852,1.337616-.0297852,1.337616,0,0-.0199585-.453125-.0297852-1.337616-.0064697-.8845215-.0161743-2.2004089-.0289307-3.9259949-.0124512-3.4512024-.0308838-8.5411377-.0546265-15.0961914-.0218506-13.110199-.0535278-32.0809021-.0925903-55.5230408-.0218506-46.8097534-.052002-111.4768066-.0853882-182.9060669-71.4292603-.0332947-136.0963135-.0634384-182.9060669-.0852585-23.4421387-.0390778-42.4127808-.0707016-55.5230103-.0925522-6.5550537-.0237427-11.6450195-.0421677-15.0961914-.0546646-1.7255859-.0127106-3.0414429-.0223999-3.9260254-.0289154-.8844604-.0097961-1.3375854-.0297775-1.3375854-.0297775Z"/>
              <path class="st11" d="M613.5015869,104.7010727s.3948975-.0174255,1.1657715-.0259552c.770874-.0056763,1.9177246-.0141296,3.4216309-.0251999,3.0078125-.0108948,7.4439087-.0269623,13.1568604-.0476532,11.4259644-.0190506,27.9595337-.0466232,48.3901367-.0806885,40.9262085-.019043,97.46521-.0453415,159.9164429-.0743866-.0290527,62.4512329-.0552979,118.9902191-.0743408,159.9164276-.0340576,20.4305725-.0615845,36.9641724-.0806274,48.3901367-.0206909,5.7129822-.0367432,10.1490173-.0476685,13.1568604-.0110474,1.5039062-.0195312,2.6507263-.0252075,3.4216309-.0085449.770874-.0259399,1.1657715-.0259399,1.1657715,0,0-.017395-.3948975-.0259399-1.1657715-.0056763-.7709045-.0141602-1.9177246-.0252075-3.4216309-.0109253-3.007843-.0269775-7.4438782-.0476685-13.1568604-.019043-11.4259644-.0466309-27.9595642-.0806885-48.3901367-.019043-40.7962952-.0453491-97.1557922-.0744019-159.408783-62.2529907-.0290222-118.6124878-.0552902-159.4087524-.0743027-20.430603-.0340576-36.9641724-.0616226-48.3901367-.0806656-5.7129517-.0206909-10.1490479-.0367508-13.1568604-.0476456-1.5039062-.0110779-2.6507568-.0195236-3.4216309-.0251999-.770874-.0085297-1.1657715-.0259476-1.1657715-.0259476Z"/>
            </g>
          </g>
        </g>
        <g class="st15">
          <line class="st2" y1="262.29953" x2="1366" y2="260.5056152"/>
        </g>
        <g class="st16">
          <g class="st12">
            <path d="M683.8988037,0c.3794556,0,.6870728,116.8336716.6870728,260.9552917s-.3076172,260.9552917-.6870728,260.9552917-.6871338-116.8336487-.6871338-260.9552917S683.5192871,0,683.8988037,0Z"/>
            <path class="st5" d="M683.8988037,13.8923302c.3592529,0,.6504517,110.6138649.6505127,247.0629616,0,136.4491272-.2912598,247.0629883-.6505127,247.0629883-.359314,0-.6505127-110.6138611-.6505127-247.0629883s.2911987-247.0629616.6505127-247.0629616Z"/>
            <path class="st1" d="M683.8988037,27.7846603c.3390503,0,.6138916,104.3940506.6138916,233.1706314s-.2748413,233.1706543-.6138916,233.1706543c-.3391113,0-.6139526-104.394043-.6139526-233.1706543s.2748413-233.1706314.6139526-233.1706314Z"/>
            <path class="st0" d="M683.8988037,41.6769905c.3188477,0,.5773315,98.1742516.5773315,219.2783012s-.2584839,219.2783203-.5773315,219.2783203c-.3189087,0-.5773926-98.1742249-.5773926-219.2783203s.2584839-219.2783012.5773926-219.2783012Z"/>
            <ellipse class="st19" cx="683.8988037" cy="260.9552946" rx=".5407715" ry="205.3859835"/>
            <path class="st18" d="M683.8988037,69.461647c.2784424,0,.5041504,85.7346268.5041504,191.4936447s-.225708,191.4936829-.5041504,191.4936829c-.2785034,0-.5042114-85.7346497-.5042114-191.4936829s.225708-191.4936447.5042114-191.4936447Z"/>
            <path class="st7" d="M683.8988037,83.353981c.2582397,0,.4675903,79.5148239.4675903,177.6013107s-.2093506,177.6013489-.4675903,177.6013489c-.2583008,0-.4676514-79.5148315-.4676514-177.6013489s.2093506-177.6013107.4676514-177.6013107Z"/>
            <ellipse class="st13" cx="683.8988037" cy="260.9552994" rx=".4310303" ry="163.7090073"/>
            <path class="st8" d="M683.8988037,111.1386337c.2178345,0,.3944092,67.0752029.3944092,149.816658s-.1765747,149.8166809-.3944092,149.8166809c-.2178955,0-.3944702-67.0751953-.3944702-149.8166809s.1765747-149.816658.3944702-149.816658Z"/>
            <path class="st17" d="M683.8988037,125.0309677c.1976318,0,.3578491,60.8554001.3578491,135.924324s-.1602173,135.9243469-.3578491,135.9243469c-.1976929,0-.3579102-60.8554077-.3579102-135.9243469s.1602173-135.924324.3579102-135.924324Z"/>
            <path class="st9" d="M683.8988037,138.9232941c.1774292,0,.3212891,54.6355896.3212891,122.0319977s-.1438599,122.0320129-.3212891,122.0320129c-.1774902,0-.3213501-54.6355896-.3213501-122.0320129s.1438599-122.0319977.3213501-122.0319977Z"/>
            <ellipse class="st6" cx="683.8988037" cy="260.9552956" rx=".284729" ry="108.1396751"/>
            <path class="st11" d="M683.8988037,166.707962c.1370239,0,.2481079,42.1959686.2481079,94.2473297,0,52.0513916-.111084,94.2473755-.2481079,94.2473755-.137085,0-.2481689-42.1959839-.2481689-94.2473755,0-52.0513611.111084-94.2473297.2481689-94.2473297Z"/>
          </g>
        </g>
      </g>
    </g>
  </g>
</svg>