<?xml version="1.0" encoding="UTF-8"?><svg xmlns="http://www.w3.org/2000/svg" xmlns:xlink="http://www.w3.org/1999/xlink" viewBox="0 0 1331.475189208969823 716.906860351535215"><defs><style>.cls-1{fill:url(#New_Gradient_Swatch_3-5);}.cls-2{fill:url(#New_Gradient_Swatch_3-6);}.cls-3{fill:url(#New_Gradient_Swatch_3-2);}.cls-4{fill:url(#New_Gradient_Swatch_3-4);}.cls-5{fill:url(#New_Gradient_Swatch_3-9);}.cls-6{fill:url(#New_Gradient_Swatch_3-8);}.cls-7{fill:url(#New_Gradient_Swatch_3-3);}.cls-8{fill:url(#New_Gradient_Swatch_3-7);}.cls-9{fill:#00ffbc;}.cls-10{fill:url(#linear-gradient-7);}.cls-11{fill:url(#linear-gradient-5);}.cls-12{fill:url(#linear-gradient-6);}.cls-13{fill:url(#linear-gradient-4);}.cls-14{fill:url(#linear-gradient-3);}.cls-15{fill:url(#linear-gradient-2);}.cls-16{stroke-width:4px;}.cls-16,.cls-17,.cls-18,.cls-19,.cls-20{fill:none;stroke:#000323;stroke-miterlimit:10;}.cls-17{stroke-width:6px;}.cls-18{stroke-width:10px;}.cls-19{stroke-width:9px;}.cls-21{fill:url(#linear-gradient);}.cls-22{isolation:isolate;}.cls-23{fill:#3d3d3d;}.cls-24{fill:url(#New_Gradient_Swatch_3);}.cls-25{mix-blend-mode:luminosity;}.cls-26{fill:url(#New_Gradient_Swatch_3-27);}.cls-27{fill:url(#New_Gradient_Swatch_3-24);}.cls-28{fill:url(#New_Gradient_Swatch_3-28);}.cls-29{fill:url(#New_Gradient_Swatch_3-23);}.cls-30{fill:url(#New_Gradient_Swatch_3-29);}.cls-31{fill:url(#New_Gradient_Swatch_3-26);}.cls-32{fill:url(#New_Gradient_Swatch_3-19);}.cls-33{fill:url(#New_Gradient_Swatch_3-17);}.cls-34{fill:url(#New_Gradient_Swatch_3-18);}.cls-35{fill:url(#New_Gradient_Swatch_3-30);}.cls-36{fill:url(#New_Gradient_Swatch_3-31);}.cls-37{fill:url(#New_Gradient_Swatch_3-13);}.cls-38{fill:url(#New_Gradient_Swatch_3-14);}.cls-39{fill:url(#New_Gradient_Swatch_3-15);}.cls-40{fill:url(#New_Gradient_Swatch_3-16);}.cls-41{fill:url(#New_Gradient_Swatch_3-25);}.cls-42{fill:url(#New_Gradient_Swatch_3-21);}.cls-43{fill:url(#New_Gradient_Swatch_3-22);}.cls-44{fill:url(#New_Gradient_Swatch_3-20);}.cls-45{fill:url(#New_Gradient_Swatch_3-11);}.cls-46{fill:url(#New_Gradient_Swatch_3-10);}.cls-47{fill:url(#New_Gradient_Swatch_3-12);}.cls-48{fill:url(#New_Gradient_Swatch_3-32);}.cls-49{fill:url(#New_Gradient_Swatch_3-33);}.cls-50{fill:url(#New_Gradient_Swatch_3-34);}.cls-51{fill:url(#New_Gradient_Swatch_3-35);}</style><linearGradient id="linear-gradient" x1="102.687775380800304" y1="266.754409730001498" x2="140.240640887403799" y2="311.08373217012246" gradientUnits="userSpaceOnUse"><stop offset="0" stop-color="#3455e6"/><stop offset=".044658157877872" stop-color="#2944be"/><stop offset=".094397073199992" stop-color="#1f359a"/><stop offset=".150462205418373" stop-color="#172779"/><stop offset=".212363522898104" stop-color="#0f1b5e"/><stop offset=".282343523862006" stop-color="#091248"/><stop offset=".364051068570911" stop-color="#050b37"/><stop offset=".465067374986025" stop-color="#02062b"/><stop offset=".606729216269164" stop-color="#000324"/><stop offset="1" stop-color="#000323"/></linearGradient><linearGradient id="linear-gradient-2" x1="4075.293814886399559" y1="153.498062271795789" x2="4024.337921052817364" y2="200.567070873784814" gradientTransform="translate(4548.39535518638877) rotate(-180) scale(1 -1)" xlink:href="#linear-gradient"/><linearGradient id="linear-gradient-3" x1="849.292128856133786" y1="127.520844670694714" x2="813.151025210689681" y2="173.45016388679386" xlink:href="#linear-gradient"/><linearGradient id="New_Gradient_Swatch_3" x1="124.049346851901646" y1="263.018764252836263" x2="117.534240794551494" y2="389.132602934664476" gradientUnits="userSpaceOnUse"><stop offset="0" stop-color="#00ffbc"/><stop offset="1" stop-color="#000323"/></linearGradient><linearGradient id="New_Gradient_Swatch_3-2" x1="956.279251584049234" y1="19.268431798687743" x2="937.641228619860954" y2="380.047304891947078" xlink:href="#New_Gradient_Swatch_3"/><linearGradient id="New_Gradient_Swatch_3-3" x1="748.92032402566565" y1="10.337816043451312" x2="730.397087715223506" y2="368.894747482047137" xlink:href="#New_Gradient_Swatch_3"/><linearGradient id="New_Gradient_Swatch_3-4" x1="467.76743529126361" y1="-6.670747338914225" x2="449.100806238310156" y2="354.661857901156907" xlink:href="#New_Gradient_Swatch_3"/><linearGradient id="New_Gradient_Swatch_3-5" x1="703.504415735974362" y1="5.507546853832537" x2="684.837786683024319" y2="366.84015209383881" xlink:href="#New_Gradient_Swatch_3"/><linearGradient id="New_Gradient_Swatch_3-6" x1="908.557190581166651" y1="16.100679133640369" x2="889.890561528216608" y2="377.433284373645506" xlink:href="#New_Gradient_Swatch_3"/><linearGradient id="New_Gradient_Swatch_3-7" x1="678.153034836653205" y1="4.197881419910118" x2="659.486405783700889" y2="365.530486659960388" xlink:href="#New_Gradient_Swatch_3"/><linearGradient id="New_Gradient_Swatch_3-8" x1="673.210193495026033" y1="3.942531682723711" x2="654.543564442076445" y2="365.275136922720719" xlink:href="#New_Gradient_Swatch_3"/><linearGradient id="New_Gradient_Swatch_3-9" x1="824.718109833936978" y1="11.206003879591663" x2="805.954587005219196" y2="374.414195779105796" xlink:href="#New_Gradient_Swatch_3"/><linearGradient id="New_Gradient_Swatch_3-10" x1="851.505082518125164" y1="12.56125319054081" x2="832.644223651421044" y2="377.653592682507622" xlink:href="#New_Gradient_Swatch_3"/><linearGradient id="New_Gradient_Swatch_3-11" x1="1061.170928638945043" y1="25.681327258394958" x2="1042.685898180851382" y2="383.498702555102284" xlink:href="#New_Gradient_Swatch_3"/><linearGradient id="New_Gradient_Swatch_3-12" x1="1055.874320225517295" y1="26.15620186844717" x2="1037.545531641830394" y2="380.949180881988525" xlink:href="#New_Gradient_Swatch_3"/><linearGradient id="New_Gradient_Swatch_3-13" x1="838.751363482258057" y1="11.950192125668764" x2="820.053310633166234" y2="373.891072276704335" xlink:href="#New_Gradient_Swatch_3"/><linearGradient id="New_Gradient_Swatch_3-14" x1="838.750290751489956" y1="11.950071116001709" x2="820.052239154282006" y2="373.890927034143317" xlink:href="#New_Gradient_Swatch_3"/><linearGradient id="New_Gradient_Swatch_3-15" x1="280.552261239784457" y1="388.884679743301604" x2="280.552261239795598" y2="496.917378849405168" xlink:href="#New_Gradient_Swatch_3"/><linearGradient id="New_Gradient_Swatch_3-16" x1="140.609176522992129" y1="388.884679743316156" x2="140.609176523003242" y2="496.917378849419777" xlink:href="#New_Gradient_Swatch_3"/><linearGradient id="New_Gradient_Swatch_3-17" x1="321.230472451936294" y1="388.884679743297966" x2="321.230472451947435" y2="496.917378849399256" xlink:href="#New_Gradient_Swatch_3"/><linearGradient id="New_Gradient_Swatch_3-18" x1="617.735256082310116" y1="388.884679743267043" x2="617.735256082321257" y2="496.917378849370721" xlink:href="#New_Gradient_Swatch_3"/><linearGradient id="New_Gradient_Swatch_3-19" x1="614.551525003211282" y1="388.884679743267043" x2="614.551525003222423" y2="496.917378849368902" xlink:href="#New_Gradient_Swatch_3"/><linearGradient id="New_Gradient_Swatch_3-20" x1="433.931075937057358" y1="388.884679743285233" x2="433.931075937068499" y2="496.917378849388797" xlink:href="#New_Gradient_Swatch_3"/><linearGradient id="New_Gradient_Swatch_3-21" x1="433.929599649211923" y1="388.884679743285233" x2="433.929599649223064" y2="496.917378849388797" xlink:href="#New_Gradient_Swatch_3"/><linearGradient id="New_Gradient_Swatch_3-22" x1="858.126444609054488" y1="137.018625938420882" x2="854.367146699505724" y2="209.787892616267271" xlink:href="#New_Gradient_Swatch_3"/><linearGradient id="New_Gradient_Swatch_3-23" x1="489.397772073009037" y1="136.54656236194387" x2="483.361291647664416" y2="253.39557630993167" xlink:href="#New_Gradient_Swatch_3"/><linearGradient id="New_Gradient_Swatch_3-24" x1="537.086894876249971" y1="126.885207678109509" x2="537.086894876263841" y2="261.186835778059105" xlink:href="#New_Gradient_Swatch_3"/><linearGradient id="New_Gradient_Swatch_3-25" x1="262.309718972928749" y1="126.885207678138613" x2="262.309718972942562" y2="261.186835778084799" xlink:href="#New_Gradient_Swatch_3"/><linearGradient id="New_Gradient_Swatch_3-26" x1="260.411357766880428" y1="126.885207678138613" x2="260.411357766894241" y2="261.18683577808622" xlink:href="#New_Gradient_Swatch_3"/><linearGradient id="New_Gradient_Swatch_3-27" x1="696.171764261011049" y1="126.885207678093138" x2="696.171764261024919" y2="261.186835778042564" xlink:href="#New_Gradient_Swatch_3"/><linearGradient id="New_Gradient_Swatch_3-28" x1="572.788448220981081" y1="126.885207678105871" x2="572.788448220994951" y2="261.186835778054956" xlink:href="#New_Gradient_Swatch_3"/><linearGradient id="New_Gradient_Swatch_3-29" x1="421.395381814725624" y1="126.885207678122242" x2="421.395381814739437" y2="261.186835778069906" xlink:href="#New_Gradient_Swatch_3"/><linearGradient id="New_Gradient_Swatch_3-30" x1="421.39413059402068" y1="126.885207678122242" x2="421.394130594034493" y2="261.186835778069337" xlink:href="#New_Gradient_Swatch_3"/><linearGradient id="New_Gradient_Swatch_3-31" x1="421.31056171259479" y1="182.195266701872242" x2="409.890442315695168" y2="403.2561493137502" xlink:href="#New_Gradient_Swatch_3"/><linearGradient id="linear-gradient-4" x1="94.727325451461184" y1="358.020336489395049" x2="144.48585458939732" y2="433.65330077904531" gradientUnits="userSpaceOnUse"><stop offset="0" stop-color="#006dbc"/><stop offset=".050839961200455" stop-color="#005499"/><stop offset=".108180163586819" stop-color="#003e79"/><stop offset=".173232559136603" stop-color="#002c5e"/><stop offset=".246644551684728" stop-color="#001c48"/><stop offset=".332358453986679" stop-color="#001137"/><stop offset=".438377545525574" stop-color="#00092b"/><stop offset=".58709330727429" stop-color="#000424"/><stop offset="1" stop-color="#000323"/></linearGradient><linearGradient id="linear-gradient-5" x1="791.762710396185867" y1="376.232648652339776" x2="705.882684081809316" y2="455.561797710782457" xlink:href="#linear-gradient"/><linearGradient id="linear-gradient-6" x1="999.549017561275832" y1="314.368864674323049" x2="917.395367381229562" y2="390.255883350481156" xlink:href="#linear-gradient"/><linearGradient id="linear-gradient-7" x1="1239.162004440193414" y1="145.252440744179694" x2="1188.206110606610764" y2="192.321449346168919" xlink:href="#linear-gradient"/><linearGradient id="New_Gradient_Swatch_3-32" x1="1226.217158900553841" y1="122.805498758569229" x2="1214.366886509570804" y2="352.192914327366225" xlink:href="#New_Gradient_Swatch_3"/><linearGradient id="New_Gradient_Swatch_3-33" x1="1006.042415248210091" y1="311.190752664821048" x2="994.192142857226941" y2="540.578168233618044" xlink:href="#New_Gradient_Swatch_3"/><linearGradient id="New_Gradient_Swatch_3-34" x1="776.323181963362003" y1="350.226527182046993" x2="765.339598798326733" y2="562.837315591390052" xlink:href="#New_Gradient_Swatch_3"/><linearGradient id="New_Gradient_Swatch_3-35" x1="99.976504643935186" y1="358.726616492287576" x2="93.519406000566462" y2="483.717597374901459" xlink:href="#New_Gradient_Swatch_3"/></defs><g class="cls-22"><g id="Layer_1"><polygon class="cls-21" points="158.838648487164392 263.646679621175281 120.794412899924282 263.597854481491595 121.220453249703496 358.022421817142458 158.838648487164392 263.646679621175281"/><polygon class="cls-15" points="524.426388031854003 136.345659117596369 486.382152444622989 136.795762877361994 486.808192794394927 230.721401313563547 524.426388031854003 136.345659117596369"/><polygon class="cls-14" points="856.250347024692928 198.356016617199202 856.246806985634066 136.795762877361994 779.296462698203868 136.795762877361994 856.250347024692928 198.356016617199202"/><g class="cls-25"><path class="cls-23" d="M663.061889648422948,448.90673828125c-164.445468774026267,84.930781694405596-347.504355453373137,179.276596481131492-512.670493785719373,264.02283268080464-.000052732584663-.000250171107837-.022942580273593-.044682907700917-.022941881108636-.044683267833534,165.06864259352642-85.26656234330585,347.950456354515154-179.54294436231794,512.693435666828009-263.978149412971106h0Z"/></g><g class="cls-25"><path class="cls-23" d="M1331.475189208969823,60.0374755859375c-9.903685662849966,5.892332226512735-21.102348749993325,12.157847098809725-31.252007468230659,17.761795527381764-17.356251136707215,9.878051591100302-34.586233440108117,19.981607257090218-52.178162466863796,29.44135383352841.000055189701015.000097709005786-.024541979471906-.043481391874593-.024541978966226-.043481392160174,17.169004186374877-10.207184581722686,34.703369740296694-19.772807093428128,52.109558611722605-29.562513351032976,10.03438935954-5.758843261131915,21.218304920927039-12.323467545427775,31.345153302338076-17.597154617717024h0Z"/></g><path class="cls-24" d="M120.794418334946386,389.301025390625c-.206680297851562-10.53759765625-.303726196289062-21.0750732421875-.384170532226562-31.6126708984375l-.117874145507812-31.6126708984375.113494873046875-31.6126708984375.138839721679688-15.8062744140625.244461059570312-15.806396484375.245758056640625,15.8062744140625.140151977539062,15.806396484375.116134643554688,31.6126708984375-.115264892578125,31.6126708984375c-.079559326171875,10.5374755859375-.175750732421875,21.0750732421875-.38153076171875,31.6126708984375Z"/><polygon class="cls-3" points="891.293437845012704 137.012010435955744 1000.114665872351907 310.884538512127619 1000.119914895793045 310.834550719158869 891.297222024692928 136.968400816815119 891.293437845012704 137.012010435955744 891.293437845012704 137.012010435955744"/><polygon class="cls-7" points="1000.114665872351907 310.884538512127619 466.374767190713101 316.628099303143244 466.376476175084463 316.576341490643244 1000.119914895793045 310.834550719158869 1000.114665872351907 310.884538512127619 1000.114665872351907 310.884538512127619"/><polygon class="cls-4" points="466.374767190713101 316.628099303143244 436.301402932904239 306.103502135174494 436.302898294223269 306.052018980877619 466.376476175084463 316.576341490643244 466.374767190713101 316.628099303143244 466.374767190713101 316.628099303143244"/><polygon class="cls-1" points="463.017284280553213 295.023179869549494 940.449321634075204 290.605424742596369 940.453899270793954 290.556016783611994 463.018962747353726 294.972184996502619 436.302898294223269 306.052018980877619 436.301402932904239 306.103502135174494 463.017284280553213 295.023179869549494 463.017284280553213 295.023179869549494"/><polygon class="cls-2" points="940.449321634075204 290.605424742596369 856.246806985634066 136.795762877361994 856.250347024692928 136.752031187908869 940.453899270793954 290.556016783611994 940.449321634075204 290.605424742596369 940.449321634075204 290.605424742596369"/><polygon class="cls-8" points="856.246806985634066 136.795762877361994 486.379527932904239 136.390458922283869 486.381084329383157 136.345659117596369 856.250347024692928 136.752031187908869 856.246806985634066 136.795762877361994 856.246806985634066 136.795762877361994"/><polygon class="cls-6" points="530.611369973914407 120.815843443768244 847.125652200474178 121.486589293377619 847.129131204384066 121.443437437908869 530.613139993443838 120.771806578533869 486.381084329383157 136.345659117596369 486.379527932904239 136.390458922283869 530.611369973914407 120.815843443768244 530.611369973914407 120.815843443768244"/><polygon class="cls-5" points="795.909404641884066 24.809450011151057 815.637798196575204 16.285386900799494 815.640727884075204 16.246354918377619 795.912273294224178 24.769868712322932 847.129131204384066 121.443437437908869 847.125652200474178 121.486589293377619 795.909404641884066 24.809450011151057 795.909404641884066 24.809450011151057"/><polygon class="cls-46" points="815.637798196575204 16.285386900799494 881.536540872352816 121.772996764080744 881.540264016884066 121.729966978924494 815.640727884075204 16.246354918377619 815.637798196575204 16.285386900799494 815.637798196575204 16.285386900799494"/><polygon class="cls-45" points="1220.292034036414407 122.499223570721369 1190.942424661414407 137.343461851971369 891.293437845012704 137.012010435955744 891.297222024692928 136.968400816815119 1190.947795755164407 137.300767760174494 1220.297527200473269 122.457200865643244 1220.292034036414407 122.499223570721369 1220.292034036414407 122.499223570721369"/><polygon class="cls-47" points="881.536540872352816 121.772996764080744 1220.292034036414407 122.499223570721369 1220.297527200473269 122.457200865643244 881.540264016884066 121.729966978924494 881.536540872352816 121.772996764080744 881.536540872352816 121.772996764080744"/><polygon class="cls-37" points="881.540264016884066 121.729966978924494 1220.297527200473269 122.457200865643244 1190.947795755164407 137.300767760174494 891.297222024692928 136.968400816815119 1000.119914895793045 310.834550719158869 466.376476175084463 316.576341490643244 436.302898294223269 306.052018980877619 463.018962747353726 294.972184996502619 940.453899270793954 290.556016783611994 856.250347024692928 136.752031187908869 486.381084329383157 136.345659117596369 530.613139993443838 120.771806578533869 847.129131204384066 121.443437437908869 795.912273294224178 24.769868712322932 815.640727884075204 16.246354918377619 881.540264016884066 121.729966978924494 881.540264016884066 121.729966978924494"/><polygon class="cls-38" points="1220.292034036414407 122.499223570721369 881.536540872352816 121.772996764080744 815.637798196575204 16.285386900799494 795.909404641884066 24.809450011151057 847.125652200474178 121.486589293377619 530.611369973914407 120.815843443768244 486.379527932904239 136.390458922283869 856.246806985634066 136.795762877361994 940.449321634075204 290.605424742596369 463.017284280553213 295.023179869549494 436.301402932904239 306.103502135174494 466.374767190713101 316.628099303143244 1000.114665872351907 310.884538512127619 891.293437845012704 137.012010435955744 1190.942424661414407 137.343461851971369 1220.292034036414407 122.499223570721369 1220.292034036414407 122.499223570721369"/><polygon class="cls-39" points="464.355480081334463 503.959825377361994 96.747951394814663 358.614183287518244 96.747119790814395 358.559739928143244 464.357402688763614 503.901292662518244 464.355480081334463 503.959825377361994 464.355480081334463 503.959825377361994"/><polygon class="cls-40" points="96.747951394814663 358.614183287518244 184.471233255164407 357.488023619549494 184.471034890904775 357.433824400799494 96.747119790814395 358.559739928143244 96.747951394814663 358.614183287518244 96.747951394814663 358.614183287518244"/><polygon class="cls-33" points="184.471233255164407 357.488023619549494 457.988017923133157 463.094407896893244 457.989910012973269 463.037278990643244 184.471034890904775 357.433824400799494 184.471233255164407 357.488023619549494 184.471233255164407 357.488023619549494"/><polygon class="cls-34" points="771.111247903602816 349.957322935955744 464.355480081334463 503.959825377361994 464.357402688763614 503.901292662518244 771.115032083293954 349.905137877361994 771.111247903602816 349.957322935955744 771.111247903602816 349.957322935955744"/><polygon class="cls-32" points="689.714946634075204 351.002244810955744 771.111247903602816 349.957322935955744 771.115032083293954 349.905137877361994 689.718242532512704 350.949815611736994 457.989910012973269 463.037278990643244 457.988017923133157 463.094407896893244 689.714946634075204 351.002244810955744 689.714946634075204 351.002244810955744"/><polygon class="cls-44" points="689.718242532512704 350.949815611736994 771.115032083293954 349.905137877361994 464.357402688763614 503.901292662518244 96.747119790814395 358.559739928143244 184.471034890904775 357.433824400799494 457.989910012973269 463.037278990643244 689.718242532512704 350.949815611736994 689.718242532512704 350.949815611736994"/><polygon class="cls-42" points="771.111247903602816 349.957322935955744 689.714946634075204 351.002244810955744 457.988017923133157 463.094407896893244 184.471233255164407 357.488023619549494 96.747951394814663 358.614183287518244 464.355480081334463 503.959825377361994 771.111247903602816 349.957322935955744 771.111247903602816 349.957322935955744"/><line class="cls-18" x1="457.988017923133157" y1="448.884558842175466" x2="457.988017923133157" y2="509.995546813268447"/><line class="cls-18" x1="688.5660500883032" y1="339.884778479188753" x2="688.5660500883032" y2="400.995766450281735"/><line class="cls-18" x1="184.471233255164407" y1="333.884790569300094" x2="184.471233255164407" y2="394.995778540393076"/><line class="cls-16" x1="530.034219869203298" y1="91.943729585174879" x2="530.034219869203298" y2="153.05471755626786"/><line class="cls-19" x1="935.366736448385382" y1="290.556016783611994" x2="935.366736448385382" y2="351.667004754704976"/><line class="cls-19" x1="466.376476175084463" y1="290.556016783611994" x2="466.376476175084463" y2="351.667004754704976"/><path class="cls-9" d="M97.519195556626073,359.207275390625c102.174830123800348,40.219839013836463,263.157820456922309,103.957701723124046,366.450205068854302,144.901724476496383,48.498071880146199-24.887724747228276,181.844426644481246-91.290199654920798,230.212626713611826-115.745661533937891.000193119875803.000309127754008,76.932993412846372-38.458186965995992,76.932993412846372-38.458186965995992-.000000000021828.000000000005457-76.728088378889879,38.865356445308862-76.72808837890625,38.8653564453125-48.534388588142065,24.496326687167311-180.279232177557788,90.94292697088531-230.57060457055286,116.305672623106148-103.631479023431893-41.33127020093707-263.87816778450815-104.747469828525936-366.29713224585339-145.868905044981148h0Z"/><path class="cls-9" d="M184.471046447739354,357.433837890625c76.33052617647445,29.127252318392493,196.548665084838831,75.433569694103426,273.691460900603488,105.156544452520393,36.082193936326803-17.903151713942862,137.205001429732874-66.152235489142186,173.52387276150148-83.824930196609785.000173845219251.000294923776892,58.031851091313001-27.815623044973108,58.031851091313001-27.815623044973108l-57.832427978515625,28.227783203125c-36.615737156546857,17.783439224473113-135.933407253481164,65.974193970752822-173.874399513341814,84.3818411324919-77.398098122152078-30.06322868397001-197.069867092676759-76.145102692340515-273.54035726156053-106.1256155465544h0Z"/><path class="cls-9" d="M1000.114654541001073,310.884521484375c-122.074794092284719,1.769795198877546-277.696939270782423,3.516581814646997-400.301000971490794,4.668334376305211-44.485594390819642.406675802114478-88.97023383454507.906766373333085-133.457284550955592,1.184692970118704-.016404625323958-.005973776493192-30.037047031981274-10.627647045885169-30.054969669175989-10.634046784867678.000038028538256.000013579068764,30.109413028535528,10.421400297818764,30.109413028536437,10.421400297818764,44.27340198780621-.696111299528638,88.977682358889069-1.136842072497529,133.395162966528915-1.693373533213162,122.743322790501225-1.488940990966512,278.054529925443603-3.087030780901841,400.308679196557023-3.947007326161838h0Z"/><path class="cls-9" d="M530.611373901352636,120.8157958984375l-43.169570922851562,15.7816162109375-.07391357421875-.4248046875c53.183211530854351-.006234812304683,131.972006113342104-.180666896329058,184.439940557506816-.04216996427931,52.080942050220074.15109110735284,132.897002314014571.298404719336759,184.438443448830185.665356777006309-87.415030653313806.308688872381026-189.280886106101207.363203953744232-276.65929799006426.084767103169725.000030194666579-.000068173709224-92.219559038735497-.270209775271724-92.219559038733678-.270209775271724.000000000853106-.000000000005457-1.260742188115728-.003662109371362-1.260742187498181-.003662109375-.000000000002728,0,1.186813354491278-.421142578125,1.186813354490369-.421142578125l43.317886352539062-15.3697509765625h0Z"/><path class="cls-9" d="M891.293426513657323,137.011962890625c57.287115698077287-.278211241213285,129.935952391640967-.360236020374941,187.280971651089203-.250609375490967,23.885232728362098.065040179544667,87.703617935716466.300066326894012,112.368155220327026.391973630479697-.282405854481112.143072874057907,29.344428544081893-14.677918310651876,29.349660475010751-14.654054244021609-.086777313834318.0207737259243-29.260309597186279,15.057255806834291-29.349879949926617,15.034364525994533-25.012413947308232.037836524461454-88.234984617447481.130913224404139-112.368860710595982.143234544340885-57.358606636098557-.017434242408854-129.975106812859849-.259418475947314-187.280046685904381-.66490908130254h0Z"/><path class="cls-9" d="M795.912261962876073,24.7698974609375c4.874836292964574-2.235485981098464,14.678806649970284-6.696321539537166,19.58499250314253-8.855545889537098-.000062083224293-.000044930782678.280791188266448-.125533212019945.28079118826372-.125533212025402-.000000000043656-.000000000087311.169494628937173.265991211001165.16949462890625.2659912109375,22.150713705976159,35.046092144013528,44.105262431829033,70.217380027002946,65.592757207210525,105.67514307928468-16.84260700597315-26.139166925941026-33.395084825716367-52.462864218485265-49.824602225124181-78.862744064430444-5.462429884430094-8.808614835166736-10.968411329742594-17.589864835166736-16.381680372711344-26.429098233604236l.4500732421875.1402587890625c-4.925610124840205,2.092705271312298-14.911403097943548,6.182325879022756-19.871826171875,8.1915283203125h0Z"/><path class="cls-9" d="M795.909393310532323,24.8094482421875l-.308807373046875-.9468994140625-.526153564453125,1.4495849609375c.409481713488276-.284868878359703,1.268185596756666-.796455170298941,1.713547914766423-1.020851394012425-.000016420625798-.000022629425075-.526261537813298,1.449684401824925-.526261537813298,1.449684401824925l-.352325439453125-.9315185546875h0Z"/><path class="cls-43" d="M856.249420166001073,209.8851318359375c-.2066650390625-6.080322265625-.3037109375-12.16064453125-.3841552734375-18.240966796875-.082763671875-6.0802001953125-.07562255859375-12.1605224609375-.11785888671875-18.2408447265625.0386962890625-6.080322265625.03424072265625-12.16064453125.11346435546875-18.240966796875l.13885498046875-9.1204833984375c.08282470703125-3.0401611328125.13128662109375-6.080322265625.24444580078125-9.1204833984375.11358642578125,3.0401611328125.1624755859375,6.0802001953125.24578857421875,9.120361328125l.14013671875,9.1204833984375c.08013916015625,6.080322265625.0765380859375,12.16064453125.11614990234375,18.240966796875-.0413818359375,6.080322265625-.03338623046875,12.16064453125-.11529541015625,18.240966796875-.07952880859375,6.080322265625-.17572021484375,12.16064453125-.38153076171875,18.240966796875Z"/><path class="cls-29" d="M486.382156372055761,253.5516357421875c-.2066650390625-9.763427734375-.303726196289062-19.52685546875-.384170532226562-29.290283203125l-.117874145507812-29.290283203125.113494873046875-29.290283203125.138839721679688-14.6451416015625.244461059570312-14.6451416015625.245758056640625,14.6451416015625.140151977539062,14.6451416015625.116134643554688,29.290283203125-.115264892578125,29.290283203125c-.079559326171875,9.763427734375-.175735473632812,19.52685546875-.38153076171875,29.290283203125Z"/><polygon class="cls-27" points="658.570476419224178 259.984880309002619 415.600505716103726 181.900102476971369 415.601726419223269 181.853288512127619 658.573284036415316 259.935777525799494 658.570476419224178 259.984880309002619 658.570476419224178 259.984880309002619"/><polygon class="cls-41" points="189.882213479773782 263.276140074627619 109.018443948523782 263.752061705486994 109.017711526654239 263.701219420330744 189.882076150674038 263.225541930096369 415.601726419223269 181.853288512127619 415.600505716103726 181.900102476971369 189.882213479773782 263.276140074627619 189.882213479773782 263.276140074627619"/><polygon class="cls-31" points="109.018443948523782 263.752061705486994 411.803844339154239 157.743089537518244 411.805004007122989 157.697252135174494 109.017711526654239 263.701219420330744 109.018443948523782 263.752061705486994 109.018443948523782 263.752061705486994"/><polygon class="cls-26" points="733.769817239543954 259.408555846111994 733.660808450474178 259.457628111736994 658.570476419224178 259.984880309002619 658.573284036415316 259.935777525799494 733.664165384075204 259.408769469158869 733.773052102825204 259.359727721111994 733.769817239543954 259.408555846111994 733.769817239543954 259.408555846111994"/><polygon class="cls-28" points="411.803844339154239 157.743089537518244 733.769817239543954 259.408555846111994 733.773052102825204 259.359727721111994 411.805004007122989 157.697252135174494 411.803844339154239 157.743089537518244 411.803844339154239 157.743089537518244"/><polygon class="cls-30" points="411.805004007122989 157.697252135174494 733.773052102825204 259.359727721111994 733.664165384075204 259.408769469158869 658.573284036415316 259.935777525799494 415.601726419223269 181.853288512127619 189.882076150674038 263.225541930096369 109.017711526654239 263.701219420330744 411.805004007122989 157.697252135174494 411.805004007122989 157.697252135174494"/><polygon class="cls-35" points="733.769817239543954 259.408555846111994 415.803844339154239 157.743089537518244 109.018443948523782 263.752061705486994 189.882213479773782 263.276140074627619 415.600505716103726 181.900102476971369 658.570476419224178 259.984880309002619 733.660808450474178 259.457628111736994 733.769817239543954 259.408555846111994 733.769817239543954 259.408555846111994"/><line class="cls-17" x1="415.805004007122989" y1="137.343461851971369" x2="415.805004007122989" y2="198.454449823064351"/><path class="cls-9" d="M189.882209777817479,263.276123046875c62.822615594197487-23.053976383627742,162.054961287875813-58.79352839155581,225.709251115007646-81.892449982415201,40.123837815875959,12.950595330312353,143.466721595435956,46.289161704253274,182.31324216156554,58.841310098163376.000021066688532-.000007576685675,60.665762033485407,19.759880118626825,60.665762033485407,19.759880118626825.000000000000909,0-60.819183349610284-19.282470703125-60.819183349609375-19.282470703125-37.720280256360638-12.167561984857457-144.104747225585925-45.904350483273447-181.985270075318113-58.342404957822509-63.847998469915183,22.964673620946996-162.638068300571831,58.428570286223476-225.883801885131106,80.916135426572509h0Z"/><polygon class="cls-36" points="415.603126525864354 403.55126953125 415.359352111801854 375.844970703125 415.218963623032323 348.1385498046875 415.101081848129979 292.7257080078125 415.214584350571386 237.3128662109375 415.353851318344823 209.6065673828125 415.597877502426854 181.900146484375 415.843223571762792 209.6064453125 415.983802795395604 237.3128662109375 416.099929809555761 292.7257080078125 415.984672546372167 348.1385498046875 415.845596313462011 375.8448486328125 415.603126525864354 403.55126953125"/><g class="cls-25"><path class="cls-23" d="M1.065216064438573,9.7900390625c134.536458595964177,41.170844171247154,280.264028191117177,85.856613169562479,414.747226624734139,127.529220483100289-.000087647683358.000320532524711-.014789490945077.048050024712211-.014789490945077.048050024712211C281.152067154929682,96.234049405115002,135.349952479082276,51.431261005602209,1.065216064438573,9.7900390625h0Z"/></g><g class="cls-25"><path class="cls-23" d="M19.193176269516698,528.563720703125c128.617935631958971,60.884846428789388,267.921844047603372,126.923680593165045,396.41556113680781,188.297669103394583-.000133001490212.000304516926917-.021579184254733.045470554046915-.021579203271358.045470545015633-128.732787238930541-60.863922783410089-268.092679593877619-127.029152565191907-396.393981933536452-188.343139648410215h0Z"/></g><g class="cls-25"><path class="cls-23" d="M415.622879028305761,1.885009765625c.276572842391033,16.280819719049759.242817176839708,34.414104307197704.147325582258418,50.796713275747607.11230665957828,27.773406773994793.407823786075824,56.826278136952169.059641836988703,84.661670357907497.000155383487254-.000009610217603-.049840038876027.000112460094897-.049840038876027.000112460094897-.433191862111926-27.856853469042107-.226430558197535-56.869958888812107-.198979648695058-84.661407274925295-.095734063323107-16.362743789517481-.330500551014666-34.61708629558234.041852268323964-50.797088818824705h0Z"/></g><g class="cls-25"><path class="cls-23" d="M802.966949462876073,0C545.764182026103299,91.440595191150351,258.078404087234958,193.604193839115396.016688891926606,284.838629479041629c.000034747490645-.000250575139944-.016688896712367-.047369711724969-.016688891926606-.047369713422086C258.087649102883915,192.980151263185689,545.499952637985189,90.978125232461025,802.966949462876073,0h0Z"/></g><line class="cls-20" x1="815.637798196575204" y1="7.255484134784638" x2="816.637798196575204" y2="99.885262083622365"/><polygon class="cls-13" points="96.750575906533413 472.55154253841647 96.750575906533413 358.614183287518244 194.37558988575438 398.029833072185284 96.750575906533413 472.55154253841647"/><polygon class="cls-11" points="671.313167459263241 400.995766450281735 771.111247903602816 349.957322935955744 770.546288125905448 482.32930061379011 671.313167459263241 400.995766450281735"/><polygon class="cls-12" points="861.084533187525267 312.896962285209156 999.978370960361644 311.085201230060193 999.554955118092039 443.737778396993235 861.084533187525267 312.896962285209156"/><polygon class="cls-10" points="1186.072113624341 140.944367597083328 1220.292034036414407 122.499223570721369 1219.865993682422413 216.424862006902913 1186.072113624341 140.944367597083328"/><polygon class="cls-48" points="1220.294647216782323 352.4991455078125 1220.050872802719823 323.7491455078125 1219.910491943344823 294.9991455078125 1219.792633056626073 237.4991455078125 1219.906097412094823 179.9991455078125 1220.045379638657323 151.249267578125 1220.289398193344823 122.499267578125 1220.534759521469823 151.2491455078125 1220.675323486313573 179.9991455078125 1220.791473388657323 237.4991455078125 1220.676177978501073 294.9991455078125 1220.537139892563573 323.7491455078125 1220.294647216782323 352.4991455078125"/><polygon class="cls-49" points="1000.119903564438573 540.8843994140625 999.876129150376073 512.1343994140625 999.735748291001073 483.3843994140625 999.617889404282323 425.8843994140625 999.731353759751073 368.384521484375 999.870635986313573 339.634521484375 1000.114654541001073 310.884521484375 1000.360015869126073 339.634521484375 1000.500579833969823 368.384521484375 1000.616729736313573 425.8843994140625 1000.501434326157323 483.3843994140625 1000.362396240219823 512.1343994140625 1000.119903564438573 540.8843994140625"/><polygon class="cls-50" points="770.551544189438573 563.1065673828125 770.378387451157323 536.4622802734375 770.308624267563573 509.8182373046875 770.331970214829198 456.5306396484375 770.586700439438573 403.24365234375 770.796600341782323 376.600341796875 771.111236572251073 349.957275390625 771.285980224594823 376.6015625 771.355926513657323 403.24560546875 771.330810546860448 456.533203125 771.074310302719823 509.8201904296875 770.864624023422948 536.4635009765625 770.551544189438573 563.1065673828125"/><path class="cls-51" d="M96.750579833969823,483.884521484375c-.2066650390625-10.4437255859375-.303726196289062-20.887451171875-.384170532226562-31.3311767578125l-.117874145507812-31.3311767578125.113494873046875-31.3311767578125.138839721679688-15.6656494140625.244461059570312-15.6656494140625.245758056640625,15.6656494140625.140151977539062,15.66552734375.116134643554688,31.3311767578125-.115264892578125,31.331298828125c-.079559326171875,10.4437255859375-.175735473632812,20.887451171875-.38153076171875,31.3311767578125Z"/></g></g></svg>