<?xml version="1.0" encoding="UTF-8"?>
<svg id="Layer_1" xmlns="http://www.w3.org/2000/svg" version="1.1" viewBox="0 0 1356.5734811 450.6401905">
  <!-- Generator: Adobe Illustrator 29.1.0, SVG Export Plug-In . SVG Version: 2.1.0 Build 142)  -->
  <defs>
    <style>
      .st0 {
        fill: none;
        stroke: #00ffbc;
        stroke-miterlimit: 10;
        stroke-width: .2080706px;
      }
    </style>
  </defs>
  <rect class="st0" x="77.5353675" y="131.491349" width="263.9926122" height="263.9926122" transform="translate(247.6842696 -70.9875249) rotate(44.9999924)"/>
  <line class="st0" x1="365.3790411" y1="84.5436249" y2="451.357715"/>
  <rect class="st0" x="171.0494279" y="131.491349" width="263.9926122" height="263.9926122" transform="translate(275.073895 -137.1119424) rotate(44.9999924)"/>
  <rect class="st0" x="264.5634882" y="131.491349" width="263.9926122" height="263.9926122" transform="translate(302.4635203 -203.2363598) rotate(44.9999924)"/>
  <line class="st0" x1="323.7454993" y1="191.3908845" x2="584.4298542" y2="450.6401905"/>
  <line class="st0" x1="1019.727907" y1="115.2296655" x2="1356.5734811" y2="450.6401905"/>
  <line class="st0" x1="614.6043309" y1="44.7255939" x2="209.4072588" y2="451.357715"/>
  <line class="st0" x1="547.2894128" x2="97.3667468" y2="451.357715"/>
  <rect class="st0" x="358.0775485" y="131.491349" width="263.9926122" height="263.9926122" transform="translate(329.8531457 -269.3607772) rotate(44.9999924)"/>
  <rect class="st0" x="451.5916088" y="131.491349" width="263.9926122" height="263.9926122" transform="translate(357.2427711 -335.4851946) rotate(44.9999924)"/>
  <line class="st0" x1="395.717855" y1="76.3351196" x2="771.4579749" y2="450.6401905"/>
  <rect class="st0" x="545.1056692" y="131.491349" width="263.9926122" height="263.9926122" transform="translate(384.6323964 -401.6096121) rotate(44.9999924)"/>
  <line class="st0" x1="864.2545107" y1="75.6175951" x2="489.9494398" y2="451.357715"/>
  <rect class="st0" x="638.6197295" y="131.491349" width="263.9926122" height="263.9926122" transform="translate(412.0220218 -467.7340295) rotate(44.9999924)"/>
  <line class="st0" x1="582.7459756" y1="76.3351196" x2="958.4860955" y2="450.6401905"/>
  <rect class="st0" x="732.1337898" y="131.491349" width="263.9926122" height="263.9926122" transform="translate(439.4116472 -533.8584469) rotate(44.9999924)"/>
  <rect class="st0" x="825.6478502" y="131.491349" width="263.9926122" height="263.9926122" transform="translate(466.8012725 -599.9828643) rotate(44.9999924)"/>
  <line class="st0" x1="711.8425408" y1="18.4035641" x2="1145.5142162" y2="450.6401905"/>
  <line class="st0" x1="843.3051039" y1="39.706422" x2="1255.6739214" y2="450.6401905"/>
  <rect class="st0" x="1012.6759708" y="131.491349" width="263.9926122" height="263.9926122" transform="translate(521.5805232 -732.2316992) rotate(44.9999924)"/>
</svg>